<?xml version="1.0" standalone="no"?>
<!DOCTYPE svg PUBLIC "-//W3C//DTD SVG 20010904//EN"
 "http://www.w3.org/TR/2001/REC-SVG-20010904/DTD/svg10.dtd">
<svg version="1.0" xmlns="http://www.w3.org/2000/svg"
 width="auto" height="auto" viewBox="0 0 300 200"
 preserveAspectRatio="xMidYMid meet">

<g transform="translate(0.000000,2000.000000) scale(0.100000,-0.100000)"
fill="#000000" stroke="none">
<path d="M8474 17957 c-3 -8 -4 -39 -2 -68 2 -40 7 -54 18 -54 20 0 22 126 3
132 -7 3 -15 -2 -19 -10z"/>
<path d="M8477 17714 c-4 -4 -7 -319 -7 -701 l0 -693 -69 0 c-41 0 -73 -5 -77
-11 -4 -7 -13 -138 -20 -293 -21 -448 -21 -457 -26 -462 -3 -2 -137 -5 -297
-5 -272 0 -293 -1 -310 -18 -18 -18 -19 -38 -20 -243 l0 -223 -106 -45 c-58
-25 -110 -52 -115 -60 -6 -9 -10 -1817 -10 -4675 0 -2563 0 -4711 0 -4772 l0
-113 -260 0 -260 0 0 2140 0 2140 -155 0 c-117 0 -155 3 -155 13 0 6 -1 395
-3 862 l-2 850 -132 3 -133 3 -2 657 -3 657 -25 2 c-14 0 -44 1 -67 2 l-43 1
0 500 0 500 -125 0 -125 0 0 195 0 195 -195 0 -195 0 0 -195 0 -195 -130 0
-130 0 0 -500 0 -500 -57 -1 c-32 -1 -61 -1 -65 0 -5 0 -8 -296 -8 -659 l0
-660 -135 0 -135 0 0 -865 0 -865 -155 0 -155 0 0 -2140 0 -2140 -265 0 -265
0 0 148 0 148 44 13 c101 30 176 134 176 246 0 152 -98 362 -191 411 -36 18
-92 18 -128 -1 -128 -66 -232 -364 -178 -507 22 -58 100 -132 156 -149 l41
-12 0 -149 0 -148 -235 0 -235 0 -1 2188 c-1 1203 -2 2196 -3 2207 0 12 -249
246 -671 632 -368 337 -673 613 -677 613 -4 0 -8 -1269 -8 -2820 l0 -2820
-1065 0 -1065 0 0 -40 0 -40 9470 0 9470 0 0 40 0 40 -615 0 -615 0 0 125 c0
95 -3 125 -12 124 -46 -6 -48 -2 -48 81 l0 80 -40 0 -40 0 0 370 0 370 740 0
c733 0 740 0 740 20 0 20 -7 20 -740 20 l-740 0 0 30 0 30 744 0 c813 0 756
-4 756 56 l0 24 -750 0 -750 0 0 35 0 35 760 0 c717 0 760 1 760 18 0 9 3 27
6 40 l6 22 -821 0 -821 0 0 1035 0 1035 58 0 57 0 58 -113 c64 -125 160 -282
254 -414 322 -455 739 -793 1191 -968 105 -40 112 -41 112 -17 0 14 -21 27
-87 51 -193 72 -447 220 -633 368 -106 84 -335 312 -419 418 l-63 80 62 -70
c184 -205 391 -387 590 -518 176 -115 539 -282 562 -259 5 5 8 24 6 42 -3 30
-7 34 -80 60 -303 110 -592 303 -864 574 -264 265 -436 508 -624 885 -38 77
-70 149 -70 160 0 20 -8 20 -390 21 -350 0 -390 -1 -390 -16 0 -27 -101 -263
-177 -411 -169 -332 -359 -627 -603 -935 -97 -123 -101 -129 -103 -183 -2 -30
0 -55 5 -55 11 0 152 171 268 325 203 271 360 523 512 824 54 107 98 185 98
173 0 -20 5 -22 50 -22 l50 0 0 -1034 0 -1034 -484 -3 c-267 -3 -488 -8 -492
-12 -8 -7 -10 -74 -3 -81 2 -2 54 0 114 5 61 4 257 8 438 8 l327 1 0 -495 0
-495 -40 0 -40 0 0 -79 c0 -79 0 -80 -27 -83 l-28 -3 -3 -122 -3 -123 -489 0
-490 0 0 2875 c0 2862 0 2875 -20 2895 -15 15 -33 20 -75 20 l-55 0 0 263 c0
191 -3 266 -12 275 -7 7 -38 12 -70 12 l-58 0 -2 418 c-3 409 -3 417 -23 417
-20 0 -20 -7 -20 -418 l0 -417 -32 0 -33 0 0 434 0 435 -35 67 c-29 55 -35 77
-35 129 0 49 -6 74 -30 121 -23 46 -30 73 -30 119 0 59 -33 153 -59 169 -6 4
-11 28 -11 54 0 50 -26 118 -53 141 -11 8 -17 28 -17 53 0 43 -27 103 -58 132
-12 10 -24 32 -28 50 -3 17 -17 45 -30 63 -20 26 -24 44 -24 98 0 82 -10 102
-66 126 l-44 20 0 148 c0 150 -4 165 -37 154 -10 -4 -13 -43 -13 -153 l0 -148
-30 -10 c-16 -6 -41 -22 -55 -36 -22 -22 -25 -34 -25 -96 0 -60 -4 -76 -24
-103 -14 -18 -28 -45 -32 -62 -4 -16 -20 -45 -36 -64 -35 -40 -48 -71 -48
-115 0 -18 -8 -44 -19 -57 -34 -44 -51 -88 -51 -131 0 -29 -8 -55 -23 -78 -34
-50 -47 -95 -47 -159 0 -42 -8 -71 -30 -115 -24 -46 -30 -72 -30 -120 0 -51
-6 -73 -37 -135 l-38 -74 0 -429 0 -428 -22 0 -23 0 -2 418 c-3 409 -3 417
-23 417 -20 0 -20 -7 -22 -415 l-2 -415 -53 -3 c-35 -2 -57 -8 -65 -19 -10
-13 -13 -84 -13 -277 l0 -261 -52 3 c-57 4 -87 -10 -93 -43 -2 -11 -4 -1308
-4 -2882 l-1 -2863 -140 0 -140 0 0 133 c0 186 10 177 -191 177 l-159 0 0 455
c0 439 -1 455 -19 465 -11 5 -38 10 -60 10 l-41 0 0 343 c0 253 -3 346 -12
355 -8 8 -48 12 -115 12 l-103 0 -1 83 c-2 165 -3 167 -121 167 l-78 0 0 43
c0 23 0 1107 0 2409 l0 2367 -22 15 c-18 13 -51 16 -155 16 l-133 0 0 218 c0
156 -3 221 -12 230 -7 7 -42 12 -89 12 l-76 0 -5 49 c-4 40 -13 58 -46 96
-108 123 -205 397 -266 755 -41 235 -59 416 -74 745 l-7 139 -32 10 -33 9 0
483 c0 477 0 484 -20 484 -20 0 -20 -7 -20 -484 l0 -484 -31 -7 c-18 -4 -34
-16 -39 -28 -4 -12 -8 -83 -9 -157 -1 -74 -4 -155 -6 -180 -2 -25 -7 -76 -10
-115 -42 -535 -176 -1013 -331 -1185 -28 -31 -34 -45 -34 -84 l0 -46 -84 0
c-67 0 -85 -3 -90 -16 -3 -9 -6 -112 -6 -230 0 -164 -3 -214 -12 -215 -7 0
-68 0 -135 1 -71 1 -131 -4 -143 -10 l-20 -11 0 -2413 0 -2414 -91 -4 c-64 -3
-93 -8 -100 -19 -5 -8 -9 -62 -9 -121 l0 -108 -104 0 c-82 0 -108 -3 -120 -16
-14 -13 -16 -60 -16 -355 l0 -339 -40 0 c-27 0 -47 -7 -60 -20 -19 -19 -20
-33 -20 -465 l0 -445 -155 0 -154 0 -3 -152 -3 -153 -117 -3 -118 -3 0 4780 0
4781 -22 13 c-13 8 -65 32 -115 53 l-93 38 0 227 c0 208 -2 227 -19 243 -16
15 -49 16 -320 14 l-301 -3 -1 30 c0 17 -2 41 -4 55 -1 14 -6 107 -10 208 -4
100 -8 197 -10 215 -1 17 -4 75 -5 127 -4 139 -5 140 -90 140 l-70 0 -2 697
c-3 671 -5 723 -31 697z m-50 -1811 c-4 -186 -7 -341 -7 -345 0 -5 -13 -8 -29
-8 -27 0 -28 2 -25 38 1 21 5 121 9 223 4 101 9 187 11 190 1 3 4 54 5 115 1
60 3 112 6 117 2 4 11 7 20 7 14 0 15 -34 10 -337z m83 170 c0 -93 3 -248 6
-345 l5 -178 -32 0 -31 0 6 68 c3 37 6 192 6 345 0 270 0 277 20 277 19 0 20
-7 20 -167z m75 155 c2 -7 6 -80 9 -163 4 -82 9 -211 11 -285 3 -74 8 -156 11
-182 5 -48 5 -48 -26 -48 l-30 0 0 83 c0 45 -3 200 -7 345 -6 242 -5 262 11
262 9 0 18 -6 21 -12z m663 -768 c6 0 12 -9 12 -20 0 -20 -7 -20 -760 -20
-751 0 -760 0 -760 20 0 19 8 20 278 22 205 2 1107 1 1230 -2z m-873 -90 c-90
-37 -622 -263 -627 -267 -5 -2 -8 59 -8 136 l0 141 328 -1 c182 0 318 -4 307
-9z m885 -130 l0 -140 -24 9 c-46 18 -621 263 -625 267 -2 2 143 4 322 4 l327
0 0 -140z m-815 48 c-2 -13 -6 -43 -9 -68 -3 -25 -22 -171 -41 -325 -68 -529
-124 -972 -224 -1765 -55 -437 -132 -1042 -170 -1345 -136 -1066 -213 -1677
-302 -2380 -49 -390 -91 -719 -93 -730 -2 -11 -4 1398 -5 3130 l-1 3150 418
177 c229 97 420 177 424 177 4 1 5 -9 3 -21z m318 -67 c89 -38 250 -106 357
-151 107 -45 214 -91 238 -101 l42 -18 -1 -3168 c-1 -1742 -3 -3161 -5 -3153
-2 8 -24 175 -49 370 -24 195 -58 463 -75 595 -17 132 -49 384 -71 560 -22
176 -41 331 -44 345 -2 14 -22 174 -45 355 -23 182 -43 344 -45 360 -3 17 -30
228 -60 470 -91 719 -211 1668 -275 2175 -33 261 -76 597 -95 745 -18 149 -36
290 -39 315 -3 25 -15 114 -26 199 -11 84 -20 162 -20 172 0 22 -13 26 213
-70z m-249 -298 l7 -73 -26 0 c-23 0 -26 3 -22 23 3 12 9 56 13 97 8 85 16 71
28 -47z m-954 -3295 l1 -3303 -23 -187 c-12 -104 -25 -188 -28 -188 -3 0 -4
1567 -3 3482 2 2774 6 3483 15 3490 7 4 19 8 26 8 9 0 12 -667 12 -3302z
m1913 3290 c16 -12 17 -231 15 -3513 l-3 -3500 -20 140 c-20 137 -20 201 -23
3513 -1 1854 2 3372 6 3372 5 0 16 -6 25 -12z m-939 -164 c3 -9 6 -29 6 -45 0
-28 -2 -29 -46 -29 l-46 0 6 31 c3 17 6 38 6 45 0 20 66 19 74 -2z m16 -131
c0 -10 3 -28 6 -40 6 -22 4 -23 -58 -23 l-64 0 4 40 4 40 54 0 c45 0 54 -3 54
-17z m20 -157 c0 -7 3 -28 6 -45 l7 -31 -88 0 c-75 0 -86 2 -81 16 3 9 6 29 6
45 l0 29 75 0 c57 0 75 -3 75 -14z m22 -162 l4 -34 -99 0 -98 0 3 32 c4 39 20
44 117 40 l69 -4 4 -34z m18 -143 c0 -16 3 -36 6 -45 5 -14 -9 -16 -115 -16
l-121 0 0 29 c0 60 2 61 121 61 l109 0 0 -29z m3007 -3 c-3 -7 -5 -2 -5 12 0
14 2 19 5 13 2 -7 2 -19 0 -25z m-1 -55 c-2 -10 -7 -69 -11 -131 -4 -63 -8
-124 -10 -135 -2 -12 -6 -53 -10 -92 -14 -144 -48 -357 -85 -520 -47 -211 -34
-190 -123 -193 l-77 -3 40 63 c58 93 117 251 166 446 39 158 94 461 94 524 0
28 9 58 17 58 2 0 2 -8 -1 -17z m81 -85 c-2 -13 -4 -5 -4 17 -1 22 1 32 4 23
2 -10 2 -28 0 -40z m-3073 26 c3 -9 6 -26 6 -39 0 -24 -1 -24 -126 -27 -69 -2
-130 -1 -135 2 -5 3 -6 23 -2 43 l6 37 122 0 c103 0 124 -3 129 -16z m-2974
-159 c0 -131 -2 -155 -15 -155 -13 0 -15 24 -15 155 0 131 2 155 15 155 13 0
15 -24 15 -155z m120 -1 l0 -155 -37 3 -38 3 -3 153 -3 152 41 0 40 0 0 -156z
m78 4 c-3 -128 -5 -153 -18 -153 -13 0 -15 25 -18 153 -2 148 -2 152 18 152
20 0 20 -4 18 -152z m5883 -63 c54 -331 148 -626 240 -757 11 -14 19 -29 19
-32 0 -3 -31 -6 -69 -6 l-69 0 -11 33 c-58 185 -125 591 -135 827 -5 115 -4
112 25 -65z m-45 -170 c18 -152 75 -460 102 -557 l19 -68 -153 0 c-85 0 -154
4 -154 8 0 5 9 44 20 88 26 100 86 427 96 519 3 39 8 77 9 85 2 8 6 53 9 100
11 133 19 146 28 45 4 -49 15 -148 24 -220z m-3038 193 l3 -37 -155 -3 c-172
-3 -167 -5 -150 60 6 22 8 22 153 20 l146 -3 3 -37z m6113 12 c14 -8 19 -21
19 -50 l0 -40 -55 0 -55 0 0 40 c0 53 41 76 91 50z m-6097 -132 c3 -17 5 -33
3 -34 -6 -6 -337 -6 -337 0 0 63 1 65 23 68 12 2 86 2 163 0 l142 -3 6 -31z
m6123 -51 c18 -10 9 -12 -62 -12 -71 0 -80 2 -62 12 12 7 40 12 62 12 22 0 50
-5 62 -12z m-8687 -47 c0 -20 -7 -20 -368 -20 -361 0 -368 0 -368 20 0 20 7
20 368 20 361 0 368 0 368 -20z m2580 -39 c0 -5 3 -23 6 -40 l7 -31 -198 0
c-176 0 -196 2 -191 16 3 9 6 27 6 40 l0 24 185 0 c102 0 185 -4 185 -9z
m6125 -15 c43 -13 105 -59 105 -77 0 -4 -21 -1 -47 7 -83 25 -171 27 -250 6
-40 -10 -73 -15 -73 -10 0 19 55 59 99 72 60 19 107 19 166 2z m-8705 -426 l0
-420 -365 0 -365 0 0 420 0 420 365 0 365 0 0 -420z m2600 295 c0 -13 3 -30 6
-39 5 -14 -17 -16 -206 -16 l-211 0 3 38 3 37 175 5 c217 6 230 5 230 -25z
m6180 -38 c42 -21 73 -44 88 -66 12 -19 21 -36 18 -38 -2 -2 -24 5 -49 16
-135 58 -306 53 -461 -14 -17 -8 -17 -6 -2 23 58 113 257 151 406 79z m-6160
-121 c0 -13 3 -31 6 -40 5 -14 -18 -16 -225 -16 l-231 0 0 33 c0 19 3 37 7 40
3 4 105 7 225 7 l218 0 0 -24z m6171 -35 c75 -28 133 -80 155 -136 9 -25 14
-48 11 -51 -3 -3 -27 6 -54 19 -167 85 -379 86 -545 4 -74 -36 -79 -33 -53 31
29 69 95 119 195 147 77 21 218 15 291 -14z m-6157 -77 c3 -9 6 -29 6 -45 l0
-29 -246 0 -246 0 6 31 c3 17 6 38 6 45 0 12 42 14 234 14 204 0 235 -2 240
-16z m6160 -135 c116 -35 206 -116 222 -197 l7 -33 -64 35 c-192 105 -469 106
-665 2 -72 -38 -78 -33 -45 39 35 79 158 156 277 175 79 12 191 3 268 -21z
m-6136 -61 l3 -38 -265 0 -266 0 0 24 c0 59 -10 57 269 54 l256 -3 3 -37z
m3282 -48 c0 -20 -5 -20 -392 -18 -365 3 -393 4 -396 21 -3 16 21 17 392 17
390 0 396 0 396 -20z m-3266 -61 c12 -63 32 -59 -280 -59 -257 0 -286 2 -280
16 3 9 6 29 6 45 l0 29 274 0 274 0 6 -31z m6110 -44 c93 -24 160 -59 217
-112 91 -85 89 -67 89 -550 l0 -423 -465 0 -465 0 -1 393 c-1 215 0 406 1 422
12 199 343 342 624 270z m-2654 -185 l0 -190 -80 0 -80 0 0 120 0 120 -46 0
-45 0 1 -107 c1 -60 1 -114 1 -120 -1 -8 -15 -13 -36 -13 l-35 0 0 120 0 120
-40 0 -40 0 0 -119 c0 -132 1 -130 -67 -123 l-33 4 0 119 c0 112 -1 119 -20
119 -19 0 -20 -7 -20 -120 l0 -120 -60 0 -60 0 0 120 c0 113 -1 120 -20 120
-19 0 -20 -7 -20 -123 l0 -122 -45 3 -45 4 0 119 0 119 -44 0 -45 0 0 -117 1
-118 -36 -6 -36 -6 0 124 0 123 -40 0 -40 0 0 -118 c0 -65 -2 -121 -4 -123 -2
-2 -32 -2 -65 -1 l-61 4 0 189 0 189 580 0 580 0 0 -190z m-3436 68 c16 -62
36 -58 -300 -58 l-306 0 6 23 c3 12 6 30 6 40 0 16 21 17 294 17 l294 0 6 -22z
m-2564 -684 l0 -614 -500 0 -500 0 0 615 0 615 488 2 c268 2 493 1 500 -1 9
-2 12 -134 12 -617z m2580 564 c0 -13 3 -33 6 -45 l6 -23 -321 0 -321 0 0 29
c0 64 -18 61 321 61 l309 0 0 -22z m20 -172 c0 -13 3 -31 6 -40 6 -14 -28 -16
-335 -16 l-341 0 0 40 0 40 335 0 335 0 0 -24z m2288 -324 l-3 -267 -177 -3
-178 -2 0 269 0 270 113 3 c61 2 142 1 180 0 l67 -4 -2 -266z m980 143 c-2
-69 -6 -125 -10 -125 -5 0 -206 0 -448 0 l-440 0 0 125 0 125 450 0 451 0 -3
-125z m432 -145 l0 -270 -175 0 -175 0 0 270 0 270 175 0 175 0 0 -270z
m-3689 215 c5 -4 9 -22 9 -41 l0 -34 -355 0 -355 0 0 23 c0 12 3 31 6 42 5 20
13 20 345 18 187 -1 344 -5 350 -8z m27 -202 l3 -43 -375 0 -376 0 0 29 c0 65
-25 62 379 59 l366 -3 3 -42z m3160 -42 l72 -1 0 -95 0 -95 -450 0 -450 0 0
94 0 95 48 3 c38 2 431 2 780 -1z m-3144 -63 c16 -62 45 -58 -390 -58 -357 0
-396 2 -390 16 3 9 6 27 6 40 l0 24 384 0 384 0 6 -22z m20 -160 c16 -62 47
-58 -410 -58 -375 0 -416 2 -410 16 3 9 6 27 6 40 l0 24 404 0 404 0 6 -22z
m3196 -103 l0 -95 -450 0 -450 0 0 95 0 95 450 0 450 0 0 -95z m-3180 -24 c0
-16 3 -36 6 -45 6 -14 -36 -16 -425 -16 l-431 0 0 38 c0 21 3 42 7 45 3 4 195
7 425 7 l418 0 0 -29z m2200 -1951 l0 -1980 -45 0 -45 0 0 1390 c0 1383 0
1390 -20 1390 -20 0 -20 -7 -20 -1390 l0 -1390 -45 0 -45 0 0 1075 c0 1068 0
1075 -20 1075 -20 0 -20 -7 -20 -1075 l0 -1075 -50 0 -50 0 0 1980 0 1980 180
0 180 0 0 -1980z m1415 0 l0 -1980 -42 0 -43 0 0 1075 c0 1068 0 1075 -20
1075 -20 0 -20 -7 -20 -1075 l0 -1075 -50 0 -50 0 0 1390 c0 1383 0 1390 -20
1390 -20 0 -20 -7 -20 -1390 l0 -1390 -45 0 -45 0 0 1980 0 1980 178 0 177 0
0 -1980z m1545 1665 l0 -235 -25 0 -25 0 0 228 c0 126 3 232 7 235 3 4 15 7
25 7 17 0 18 -14 18 -235z m90 1 c0 -225 -1 -234 -20 -239 -20 -5 -20 0 -20
234 0 232 1 239 20 239 19 0 20 -7 20 -234z m1020 -29 c0 -242 2 -265 18 -280
15 -14 43 -16 173 -16 84 0 166 0 182 0 l27 -1 -2 -2847 -3 -2848 -847 -3
c-675 -2 -848 0 -848 10 -3 909 2 5683 5 5686 2 3 80 5 172 6 l167 1 13 25 c9
18 12 92 12 260 1 129 1 243 1 253 0 16 29 17 465 17 l465 0 0 -263z m140 28
l0 -235 -30 0 -30 0 0 228 c0 126 3 232 7 235 3 4 17 7 30 7 l23 0 0 -235z
m108 -2 l2 -233 -30 0 -30 0 -1 210 c-1 116 -1 219 -1 230 0 31 0 32 30 28
l27 -3 3 -232z m-3338 82 l0 -95 -450 0 -450 0 0 95 0 95 450 0 450 0 0 -95z
m-3160 43 c0 -13 3 -33 6 -46 l6 -22 -453 2 -454 3 3 35 c2 19 6 38 9 43 2 4
202 7 444 7 l439 0 0 -22z m18 -150 l3 -38 -465 0 c-513 0 -476 -5 -460 58 l6
22 457 -2 456 -3 3 -37z m3142 -118 l0 -90 -450 0 -450 0 0 90 0 90 450 0 450
0 0 -90z m-5599 -735 c1 -432 1 -796 1 -810 0 -14 0 -32 -1 -40 -1 -13 -94
-15 -771 -15 l-770 0 0 825 0 825 770 0 770 0 1 -785z m2481 690 c2 -20 2 -38
-1 -40 -2 -3 -222 -5 -488 -5 l-483 0 0 29 c0 58 -15 56 497 53 l471 -2 4 -35z
m14 -109 c15 -61 47 -57 -500 -56 -275 0 -501 2 -502 3 0 1 1 19 4 40 l4 37
494 0 494 0 6 -24z m3104 -76 l0 -100 -450 0 -450 0 0 100 0 100 450 0 450 0
0 -100z m-3088 -82 c4 -7 8 -25 8 -40 l0 -28 -526 0 -526 0 6 23 c3 12 6 31 6
42 0 20 6 20 512 18 400 -2 513 -5 520 -15z m3088 -148 l0 -90 -450 0 -450 0
0 90 0 90 450 0 450 0 0 -90z m-9288 -499 c320 -293 584 -540 586 -547 3 -12
-92 -14 -587 -14 l-591 0 -1 533 c0 292 -2 540 -4 550 -2 10 0 17 5 15 4 -2
271 -243 592 -537z m6218 517 c0 -13 3 -33 6 -45 l6 -23 -541 0 -541 0 0 45 0
45 535 0 535 0 0 -22z m20 -157 c0 -5 3 -23 6 -40 l7 -31 -565 0 -564 0 4 40
4 40 554 0 c310 0 554 -4 554 -9z m3050 -91 l0 -100 -450 0 -450 0 0 100 0
100 450 0 450 0 0 -100z m-3029 -62 c3 -21 4 -40 1 -43 -3 -3 -263 -5 -579 -5
l-573 0 0 23 c0 12 3 32 6 45 l6 22 567 -2 566 -3 6 -37z m3029 -168 l0 -90
-450 0 -450 0 0 90 0 90 450 0 450 0 0 -90z m-3010 0 l0 -40 -595 0 -595 0 0
33 c0 19 3 37 7 40 3 4 271 7 595 7 l588 0 0 -40z m14 -96 c3 -9 6 -29 6 -45
l0 -29 -615 0 -616 0 5 28 c2 15 5 35 5 45 1 16 37 17 605 17 541 0 604 -2
610 -16z m2996 -134 l0 -100 -450 0 -450 0 0 100 0 100 450 0 450 0 0 -100z
m-2976 -36 c3 -9 6 -27 6 -40 l0 -24 -612 -2 c-613 -1 -648 -1 -656 6 -2 2 0
20 3 40 l7 36 623 0 c559 0 623 -2 629 -16z m11 -116 c1 -2 5 -20 9 -40 l7
-38 -653 0 -654 0 4 39 c3 35 8 40 30 43 32 4 1254 -1 1257 -4z m2965 -78 l0
-90 -450 0 -450 0 0 90 0 90 450 0 450 0 0 -90z m-2940 -89 c0 -5 3 -23 6 -40
l7 -31 -675 0 -674 0 4 40 4 40 664 0 c373 0 664 -4 664 -9z m2940 -141 l0
-100 -450 0 -450 0 0 100 0 100 450 0 450 0 0 -100z m-8700 -75 l0 -125 -592
0 -593 0 3 125 3 125 590 0 589 0 0 -125z m5781 58 l5 -43 -688 0 -688 0 0 23
c0 12 3 32 6 45 l6 22 677 -2 676 -3 6 -42z m-4441 -2153 l0 -2100 -45 0 -45
0 0 2100 0 2100 45 0 45 0 0 -2100z m530 1528 c0 -315 0 -877 0 -1248 0 -371
0 -1059 0 -1527 l0 -853 -50 0 c-27 0 -50 3 -50 8 0 4 -1 129 -3 277 l-2 270
-142 3 -143 3 -2 -278 -3 -278 -45 0 -45 0 -3 2098 -2 2097 245 0 245 0 0
-572z m880 -1529 l0 -2100 -42 3 -43 3 -3 278 -2 277 -140 0 -140 0 -2 -277
-3 -278 -27 -3 -28 -3 -2 278 -3 278 -142 3 -143 3 0 -281 0 -280 -55 0 -55 0
0 2100 0 2100 415 0 415 0 0 -2101z m530 0 l0 -2100 -46 3 -45 3 -2 275 -2
275 -142 3 -143 3 0 -281 0 -280 -55 0 -55 0 0 2100 0 2100 245 0 245 0 0
-2101z m138 4 l-3 -2098 -45 0 -45 0 -3 2098 -2 2097 50 0 50 0 -2 -2097z
m2384 1987 c3 -35 1 -40 -17 -40 -11 0 -329 -1 -708 -3 l-687 -2 0 27 c0 63
-56 58 710 58 l698 0 4 -40z m2898 -50 l0 -90 -450 0 -450 0 0 90 0 90 450 0
450 0 0 -90z m-8700 -140 l0 -130 -589 0 -590 0 -3 103 c-2 56 -2 114 0 130
l3 27 590 0 589 0 0 -130z m5818 58 l3 -38 -725 0 c-408 0 -726 4 -726 9 0 5
3 23 6 40 l7 31 716 -2 716 -3 3 -37z m2882 -148 l0 -100 -450 0 -450 0 0 100
0 100 450 0 450 0 0 -100z m-2866 14 c3 -9 6 -26 6 -40 l0 -24 -745 -2 c-547
-2 -745 0 -745 8 0 6 3 26 6 43 l7 31 732 0 c659 0 733 -2 739 -16z m8256 -79
l0 -25 -310 0 c-303 0 -310 0 -310 20 0 19 8 20 308 23 169 1 308 3 310 5 1 1
2 -9 2 -23z m-14090 -135 l0 -120 -592 2 -592 3 1 23 c0 12 1 65 2 117 l1 95
590 0 590 0 0 -120z m5850 81 c0 -9 3 -26 6 -38 l6 -23 -764 0 -764 0 4 40 4
40 742 2 c407 2 747 1 754 -1 6 -2 12 -11 12 -20z m8240 -36 l0 -25 -310 0
-310 0 0 25 0 25 310 0 310 0 0 -25z m-5390 -75 l0 -90 -450 0 -450 0 0 90 0
90 450 0 450 0 0 -90z m-2826 -61 c3 -17 6 -38 6 -45 0 -12 -126 -14 -786 -14
-713 0 -786 1 -780 16 3 9 6 29 6 45 l0 29 774 0 774 0 6 -31z m8106 -24 l0
-55 -70 0 -70 0 0 -40 0 -40 70 0 70 0 0 -80 0 -80 -110 0 -110 0 0 -25 0 -25
110 0 110 0 0 -65 c0 -63 -1 -65 -25 -65 -18 0 -25 -5 -25 -20 0 -15 7 -20 25
-20 l25 0 0 -105 0 -105 -40 0 -40 0 0 -40 0 -40 40 0 40 0 0 -65 0 -65 -199
0 c-226 0 -208 -8 -203 91 l4 59 99 0 c92 0 99 1 99 20 0 19 -7 20 -100 20
l-100 0 -1 90 c-1 50 -1 97 -1 105 0 32 3 35 47 35 38 0 45 3 45 20 0 17 -7
20 -45 20 -44 0 -47 3 -47 35 0 74 0 75 40 75 51 0 64 11 60 51 -3 33 -5 34
-50 37 l-48 3 -1 55 c-1 29 -1 61 -1 69 0 8 0 20 1 25 0 6 39 10 91 10 83 0
90 1 90 20 0 19 -7 20 -90 20 -65 0 -90 4 -91 13 -1 13 -1 73 0 100 1 16 18
17 201 17 l200 0 0 -55z m-13978 -170 l-3 -125 -590 0 c-324 0 -589 3 -589 8
0 4 -1 60 -3 125 l-2 117 595 0 595 0 -3 -125z m8698 30 l0 -95 -172 -1 c-195
0 -522 0 -645 1 l-83 0 0 95 0 95 450 0 450 0 0 -95z m-2808 25 l4 -40 -798
-2 -798 -3 0 27 c0 63 -65 58 800 58 l788 0 4 -40z m18 -154 c0 -14 3 -31 6
-40 6 -15 -70 -16 -816 -16 l-821 0 3 37 c3 33 7 39 32 43 17 3 382 4 813 2
l783 -2 0 -24z m2790 -102 l0 -84 -77 0 c-67 -1 -200 -1 -725 0 l-98 0 0 85 0
85 443 2 c243 2 445 2 450 0 4 -2 7 -41 7 -88z m-8700 -94 l0 -130 -590 0
-590 0 0 130 0 130 590 0 590 0 0 -130z m5926 76 c15 -61 79 -57 -833 -59
-612 -1 -833 1 -833 9 0 6 3 26 6 43 l7 31 823 0 824 0 6 -24z m2717 -115 l57
-1 0 -95 0 -95 -450 0 -450 0 0 95 0 95 258 2 c225 3 329 2 585 -1z m5938 -18
c13 -16 12 -17 -3 -4 -10 7 -18 15 -18 17 0 8 8 3 21 -13z m-8631 -48 c0 -30
-3 -35 -22 -35 -389 -2 -1683 1 -1686 4 -2 3 -1 18 3 35 l7 31 849 0 849 0 0
-35z m-5950 -175 l0 -110 -590 0 -590 0 0 110 0 110 590 0 590 0 0 -110z
m5956 87 c2 -1 6 -22 10 -45 l7 -42 -876 0 -875 0 5 43 c4 23 9 44 14 47 7 5
1710 2 1715 -3z m2632 -87 l112 0 0 -91 c0 -79 -2 -90 -16 -85 -9 3 -211 6
-450 6 l-434 0 0 84 0 85 48 3 c26 2 178 2 337 1 160 -2 341 -3 403 -3z
m-2604 -102 c3 -13 6 -29 6 -35 0 -10 -185 -13 -893 -13 l-893 0 4 35 4 35
883 0 883 0 6 -22z m-5982 -178 c2 -66 2 -125 0 -130 -2 -6 -216 -10 -592 -10
l-589 0 -3 120 c-2 66 -1 125 0 130 2 6 216 10 592 10 l589 0 3 -120z m5992
78 c3 -7 7 -30 10 -50 l5 -38 -910 0 -909 0 0 28 c0 15 3 37 6 50 l6 22 894 0
c707 0 895 -3 898 -12z m2706 -93 l0 -75 -450 0 -450 0 0 75 0 75 450 0 450 0
0 -75z m5280 -5 l0 -30 -110 0 c-103 0 -110 -1 -110 -20 0 -19 7 -20 110 -20
l110 0 0 -40 c0 -36 -2 -40 -25 -40 -18 0 -25 -5 -25 -20 0 -15 7 -20 25 -20
24 0 25 -2 25 -65 l0 -65 -155 0 c-148 0 -155 -1 -155 -20 0 -19 7 -20 155
-20 l155 0 0 -165 0 -164 -117 -3 c-103 -3 -118 -5 -121 -20 -3 -16 8 -18 117
-18 l121 0 0 -115 0 -115 -200 0 c-110 0 -200 3 -200 8 -1 17 -2 178 -1 190 1
8 18 12 52 12 l50 0 -3 38 c-3 37 -3 37 -53 42 l-50 5 4 45 c1 25 4 47 6 49 2
2 23 4 47 5 35 1 43 4 43 20 0 16 -8 20 -44 23 -24 1 -45 4 -47 5 -2 3 -6 338
-5 406 1 20 6 22 52 22 l50 0 -3 38 c-3 37 -3 37 -50 40 -40 3 -48 6 -48 23 0
18 9 19 200 19 l200 0 0 -30z m-7960 -94 c0 -13 3 -31 6 -40 6 -15 -80 -16
-925 -16 l-931 0 0 40 0 40 925 0 925 0 0 -24z m1900 -691 l0 -635 40 0 40 0
0 636 0 635 35 -3 36 -3 0 -267 0 -268 24 0 25 0 0 270 0 270 45 0 45 0 0
-365 0 -365 40 0 40 0 0 365 0 365 35 0 35 0 1 -702 c1 -387 2 -710 3 -718 0
-8 10 -15 21 -15 20 0 20 7 22 715 l3 715 45 3 45 3 0 -860 0 -861 40 0 40 0
0 860 0 860 275 0 275 0 0 -50 c0 -41 -3 -50 -17 -50 -10 -1 -98 0 -195 0
-109 0 -186 -3 -198 -10 -20 -11 -20 -20 -20 -945 l0 -935 -70 0 -69 0 -3 82
c-3 70 -6 83 -20 86 -16 3 -18 -6 -18 -82 l0 -86 -270 0 -270 0 0 270 c0 263
0 270 -20 270 -20 0 -20 -7 -20 -270 l0 -270 -70 0 -70 0 0 930 0 930 -24 15
c-13 9 -28 15 -32 14 -5 -1 -93 -1 -196 0 l-188 1 0 50 0 50 280 0 280 0 0
-635z m-7920 505 l0 -120 -592 2 -592 3 1 23 c0 12 1 65 2 117 l1 95 590 0
590 0 0 -120z m6035 63 c4 -16 8 -36 10 -45 3 -17 -47 -18 -946 -18 -799 0
-949 2 -949 14 0 7 3 28 6 45 l7 31 933 0 934 0 5 -27z m1685 -203 l0 -80
-280 0 -280 0 0 80 0 80 280 0 280 0 0 -80z m1611 58 c0 -13 1 -49 2 -81 l2
-57 -277 0 -278 0 0 80 0 80 275 0 275 0 1 -22z m-3269 -43 l3 -45 -967 0
-968 0 0 23 c0 12 3 32 6 45 l6 22 958 0 958 0 4 -45z m-6060 -160 l-3 -125
-592 0 -592 0 0 125 0 125 595 0 595 0 -3 -125z m6072 59 c3 -9 6 -27 6 -40
l0 -24 -986 0 c-895 0 -986 1 -980 16 3 9 6 27 6 40 l0 24 974 0 c879 0 974
-2 980 -16z m1644 -391 l2 -313 -395 0 -395 0 0 315 0 315 393 -2 392 -3 3
-312z m1852 2 l0 -315 -395 0 -395 0 0 315 0 315 395 0 395 0 0 -315z m-3480
-540 l0 -785 -990 0 -990 0 0 785 0 785 990 0 990 0 0 -785z m-6090 585 l0
-120 -590 0 -590 0 0 120 0 120 590 0 590 0 0 -120z m0 -285 l0 -125 -590 0
-590 0 0 125 0 125 590 0 590 0 0 -125z m14088 29 l-3 -57 -65 -1 -65 -1 0
-40 0 -40 68 0 67 0 0 -62 0 -63 -190 0 c-183 0 -190 -1 -190 -20 0 -19 7 -20
190 -20 l190 0 0 -75 0 -75 -60 0 c-53 0 -60 -2 -60 -20 0 -18 7 -20 60 -20
l60 0 0 -120 0 -120 -70 0 -70 0 0 -40 0 -40 70 0 70 0 0 -60 0 -60 -310 0
-310 0 0 70 0 70 210 0 c203 0 210 1 210 20 0 19 -7 20 -210 20 l-210 0 0 130
0 130 120 0 c113 0 120 1 120 20 0 19 -7 20 -120 20 l-120 0 0 65 0 65 75 0
75 0 0 40 0 40 -75 0 -75 0 0 60 0 60 178 2 c169 3 177 4 177 23 0 19 -8 20
-177 23 l-178 2 0 65 0 65 310 0 311 0 -3 -56z m-6368 -544 l0 -350 -455 0
c-357 0 -455 3 -455 13 -2 161 1 680 4 685 2 4 207 6 455 4 l451 -2 0 -350z
m1970 0 l0 -350 -455 0 -455 0 0 350 0 350 455 0 455 0 0 -350z m-9690 215 l0
-125 -590 0 -590 0 0 125 0 125 590 0 590 0 0 -125z m661 -147 c60 -61 119
-215 119 -314 0 -131 -136 -215 -256 -158 -114 54 -125 209 -27 397 59 111
106 133 164 75z m-661 -143 l0 -125 -590 0 -590 0 0 125 0 125 590 0 590 0 0
-125z m0 -275 l0 -110 -589 0 -590 0 -3 110 -3 110 593 0 592 0 0 -110z m1600
-205 c0 -228 -1 -235 -20 -235 -19 0 -20 7 -20 235 0 228 1 235 20 235 19 0
20 -7 20 -235z m80 225 c0 -5 0 -107 0 -225 0 -118 0 -219 0 -225 0 -5 -9 -10
-20 -10 -19 0 -20 7 -20 235 0 228 1 235 20 235 11 0 20 -4 20 -10z m470 -225
c0 -228 -1 -235 -20 -235 -19 0 -20 7 -20 235 0 228 1 235 20 235 19 0 20 -7
20 -235z m80 0 c0 -228 -1 -235 -20 -235 -19 0 -20 7 -20 235 0 228 1 235 20
235 19 0 20 -7 20 -235z m270 0 c0 -228 -1 -235 -20 -235 -19 0 -20 7 -20 235
0 228 1 235 20 235 19 0 20 -7 20 -235z m80 0 c0 -228 -1 -235 -20 -235 -19 0
-20 7 -20 235 0 228 1 235 20 235 19 0 20 -7 20 -235z m440 0 c0 -228 -1 -235
-20 -235 -19 0 -20 7 -20 235 0 228 1 235 20 235 19 0 20 -7 20 -235z m80 0
c0 -228 -1 -235 -20 -235 -19 0 -20 7 -20 235 0 228 1 235 20 235 19 0 20 -7
20 -235z m4620 115 l0 -50 -454 0 c-312 0 -455 3 -458 11 -2 5 -2 28 0 50 l4
39 454 0 454 0 0 -50z m1970 0 l0 -50 -455 0 -455 0 0 50 0 50 455 0 455 0 0
-50z m4480 -70 l0 -40 -390 0 -390 0 0 40 0 40 390 0 390 0 0 -40z m-14170
-90 l0 -100 -590 0 -590 0 0 95 0 95 588 3 c323 1 588 3 590 5 1 1 2 -43 2
-98z m10030 -80 l0 -110 -1785 0 -1785 0 0 110 0 110 1785 0 1785 0 0 -110z
m4200 -40 l0 -80 -450 0 -450 0 0 80 0 80 450 0 450 0 0 -80z m-8140 45 l0
-25 -990 0 -990 0 0 25 0 25 990 0 990 0 0 -25z m-6089 -72 c0 -5 2 -16 4 -25
3 -17 -31 -18 -594 -18 l-598 0 5 25 4 25 589 0 c324 0 589 -3 590 -7z m6089
-18 l0 -25 -990 0 -990 0 0 25 0 25 990 0 990 0 0 -25z"/>
<path d="M5447 13404 c-4 -4 -7 -79 -7 -166 l0 -159 43 3 42 3 0 160 0 160
-35 3 c-20 2 -39 0 -43 -4z"/>
<path d="M5570 13245 l0 -165 40 0 40 0 0 165 0 165 -40 0 -40 0 0 -165z"/>
<path d="M5690 13245 l0 -165 40 0 40 0 0 165 0 165 -40 0 -40 0 0 -165z"/>
<path d="M5810 13245 l0 -165 40 0 40 0 0 165 0 165 -40 0 -40 0 0 -165z"/>
<path d="M5930 13245 l0 -165 40 0 40 0 0 165 0 165 -40 0 -40 0 0 -165z"/>
<path d="M5441 12951 c3 -64 9 -73 50 -69 l34 3 2 58 2 57 -45 0 -44 0 1 -49z"/>
<path d="M5570 12940 l0 -60 40 0 40 0 0 60 0 60 -40 0 -40 0 0 -60z"/>
<path d="M5690 12940 l0 -60 40 0 40 0 0 60 0 60 -40 0 -40 0 0 -60z"/>
<path d="M5810 12940 l0 -60 40 0 40 0 0 60 0 60 -40 0 -40 0 0 -60z"/>
<path d="M5930 12940 l0 -60 40 0 40 0 0 60 0 60 -40 0 -40 0 0 -60z"/>
<path d="M14512 12620 l0 -40 209 0 209 0 0 40 0 40 -209 0 -210 0 1 -40z"/>
<path d="M14420 12465 l0 -25 289 0 c159 0 296 3 305 6 9 3 16 15 16 25 0 18
-12 19 -305 19 l-305 0 0 -25z"/>
<path d="M14420 12310 l0 -40 305 0 305 0 0 40 0 40 -305 0 -305 0 0 -40z"/>
<path d="M14420 12160 c0 -20 7 -20 305 -20 298 0 305 0 305 20 0 20 -7 20
-305 20 -298 0 -305 0 -305 -20z"/>
<path d="M14420 12005 l0 -45 289 0 c159 0 296 3 305 6 11 4 16 19 16 45 l0
38 -305 1 -305 0 0 -45z"/>
<path d="M14420 11850 c0 -20 7 -20 305 -20 298 0 305 0 305 20 0 20 -7 20
-305 20 -298 0 -305 0 -305 -20z"/>
<path d="M5325 12558 c-3 -7 -4 -26 -2 -43 l2 -30 98 -3 97 -3 0 46 0 45 -95
0 c-67 0 -97 -4 -100 -12z"/>
<path d="M5630 12524 l0 -45 98 3 97 3 1 37 c1 20 -4 39 -11 42 -7 2 -51 4
-98 4 l-87 0 0 -44z"/>
<path d="M5944 12562 c-6 -4 -10 -23 -10 -42 l1 -35 98 -3 97 -3 0 45 0 44
-88 0 c-49 0 -93 -3 -98 -6z"/>
<path d="M5332 12421 c-8 -5 -12 -22 -10 -42 l3 -34 98 -3 97 -3 0 46 0 45
-87 0 c-49 0 -94 -4 -101 -9z"/>
<path d="M5632 12386 l3 -41 95 0 95 0 0 40 0 40 -98 1 -98 1 3 -41z"/>
<path d="M5934 12415 c-3 -7 -4 -26 -2 -42 l3 -28 95 0 95 0 3 41 3 40 -96 2
c-73 1 -97 -2 -101 -13z"/>
<path d="M5326 12264 c-15 -57 -4 -64 100 -64 l94 0 0 45 0 45 -94 0 c-93 0
-94 0 -100 -26z"/>
<path d="M5632 12247 l3 -42 95 0 95 0 0 40 0 40 -98 2 -98 1 3 -41z"/>
<path d="M5934 12276 c-3 -8 -4 -27 -2 -43 l3 -28 95 0 95 0 3 41 3 41 -96 2
c-76 2 -96 -1 -101 -13z"/>
<path d="M5324 12136 c-3 -8 -4 -27 -2 -43 l3 -28 98 -3 97 -3 0 46 0 45 -95
0 c-73 0 -97 -3 -101 -14z"/>
<path d="M5630 12106 l0 -44 98 1 97 2 0 40 0 40 -97 3 -98 3 0 -45z"/>
<path d="M5934 12136 c-3 -8 -4 -27 -2 -43 l3 -28 98 -2 97 -1 0 44 0 44 -95
0 c-73 0 -97 -3 -101 -14z"/>
<path d="M5322 11963 l3 -38 98 -3 97 -3 0 41 0 40 -101 0 -100 0 3 -37z"/>
<path d="M5630 11960 l0 -41 97 3 98 3 2 38 3 37 -100 0 -100 0 0 -40z"/>
<path d="M5933 11963 l2 -38 98 -3 97 -3 0 41 0 40 -100 0 -100 0 3 -37z"/>
<path d="M5322 11823 l3 -38 98 -3 97 -3 0 41 0 40 -101 0 -100 0 3 -37z"/>
<path d="M5630 11820 l0 -41 97 3 98 3 2 38 3 37 -100 0 -100 0 0 -40z"/>
<path d="M5933 11823 l2 -38 98 -3 97 -3 0 41 0 40 -100 0 -100 0 3 -37z"/>
<path d="M5322 11683 l3 -38 98 -3 97 -3 0 41 0 40 -101 0 -100 0 3 -37z"/>
<path d="M5630 11680 l0 -41 98 3 97 3 1 38 1 37 -98 0 -99 0 0 -40z"/>
<path d="M5934 11683 l1 -38 98 -3 97 -3 0 41 0 40 -99 0 -98 0 1 -37z"/>
<path d="M5322 11543 l3 -38 98 -3 97 -3 0 41 0 40 -101 0 -100 0 3 -37z"/>
<path d="M5630 11540 l0 -41 98 3 97 3 3 38 3 37 -100 0 -101 0 0 -40z"/>
<path d="M5932 11543 l3 -38 98 -3 97 -3 0 41 0 40 -101 0 -100 0 3 -37z"/>
<path d="M10900 12085 l0 -165 40 0 40 0 0 165 0 165 -40 0 -40 0 0 -165z"/>
<path d="M11320 12200 l0 -40 40 0 40 0 0 40 0 40 -40 0 -40 0 0 -40z"/>
<path d="M11610 12200 l0 -40 40 0 40 0 0 40 0 40 -40 0 -40 0 0 -40z"/>
<path d="M11900 12200 l0 -40 40 0 40 0 0 40 0 40 -40 0 -40 0 0 -40z"/>
<path d="M12320 12085 l0 -165 40 0 40 0 0 165 0 165 -40 0 -40 0 0 -165z"/>
<path d="M11320 11970 l0 -40 40 0 40 0 0 40 0 40 -40 0 -40 0 0 -40z"/>
<path d="M11610 11970 l0 -40 40 0 40 0 0 40 0 40 -40 0 -40 0 0 -40z"/>
<path d="M11900 11970 l0 -40 40 0 40 0 0 40 0 40 -40 0 -40 0 0 -40z"/>
<path d="M11320 11740 l0 -40 40 0 40 0 0 40 0 40 -40 0 -40 0 0 -40z"/>
<path d="M11610 11740 l0 -40 40 0 40 0 0 40 0 40 -40 0 -40 0 0 -40z"/>
<path d="M11900 11740 l0 -40 40 0 40 0 0 40 0 40 -40 0 -40 0 0 -40z"/>
<path d="M10840 11570 l0 -40 40 0 40 0 0 40 0 40 -40 0 -40 0 0 -40z"/>
<path d="M10970 11570 l0 -40 40 0 40 0 0 40 0 40 -40 0 -40 0 0 -40z"/>
<path d="M10840 11366 l0 -46 41 0 40 0 -3 42 c-3 41 -4 42 -40 46 l-38 3 0
-45z"/>
<path d="M10974 11401 c-2 -2 -4 -22 -4 -43 0 -38 0 -38 40 -38 l40 0 0 45 0
45 -36 -3 c-19 -1 -37 -4 -40 -6z"/>
<path d="M10840 11155 l0 -45 40 0 40 0 0 45 0 45 -40 0 -40 0 0 -45z"/>
<path d="M10970 11155 l0 -45 40 0 40 0 0 45 0 45 -40 0 -40 0 0 -45z"/>
<path d="M10840 10945 l0 -45 40 0 40 0 0 45 0 45 -40 0 -40 0 0 -45z"/>
<path d="M10970 10945 l0 -45 40 0 40 0 0 45 0 45 -40 0 -40 0 0 -45z"/>
<path d="M10840 10740 c0 -34 4 -41 25 -46 41 -10 55 1 55 46 l0 40 -40 0
c-40 0 -40 0 -40 -40z"/>
<path d="M10972 10738 c3 -42 4 -43 41 -44 l37 -1 0 43 0 44 -41 0 -40 0 3
-42z"/>
<path d="M10840 10515 l0 -45 40 0 40 0 0 45 0 45 -40 0 -40 0 0 -45z"/>
<path d="M10840 10306 l0 -44 38 1 c36 2 37 3 40 45 l3 42 -40 0 -41 0 0 -44z"/>
<path d="M10840 10100 l0 -40 40 0 40 0 0 40 0 40 -40 0 -40 0 0 -40z"/>
<path d="M12250 11570 l0 -40 40 0 40 0 0 40 0 40 -40 0 -40 0 0 -40z"/>
<path d="M12390 11570 l0 -40 40 0 40 0 0 40 0 40 -40 0 -40 0 0 -40z"/>
<path d="M12250 11363 l0 -43 40 0 40 0 0 44 0 43 -40 -1 -40 -1 0 -42z"/>
<path d="M12390 11365 l0 -45 41 0 40 0 -3 41 c-3 40 -4 42 -40 46 l-38 4 0
-46z"/>
<path d="M12250 11155 l0 -45 40 0 40 0 0 45 0 45 -40 0 -40 0 0 -45z"/>
<path d="M12390 11155 l0 -45 40 0 40 0 0 45 0 45 -40 0 -40 0 0 -45z"/>
<path d="M12250 10945 l0 -45 40 0 40 0 0 45 0 45 -40 0 -40 0 0 -45z"/>
<path d="M12390 10945 l0 -45 40 0 40 0 0 45 0 45 -40 0 -40 0 0 -45z"/>
<path d="M12252 10738 c3 -41 4 -42 41 -46 l37 -3 0 45 0 46 -41 0 -40 0 3
-42z"/>
<path d="M12390 10740 c0 -34 4 -41 25 -46 41 -10 55 1 55 46 l0 40 -40 0
c-40 0 -40 0 -40 -40z"/>
<path d="M12390 10515 l0 -45 40 0 40 0 0 45 0 45 -40 0 -40 0 0 -45z"/>
<path d="M12390 10306 l0 -44 38 1 c36 2 37 3 40 45 l3 42 -40 0 -41 0 0 -44z"/>
<path d="M12390 10100 l0 -40 40 0 40 0 0 40 0 40 -40 0 -40 0 0 -40z"/>
<path d="M14610 11360 l0 -40 115 0 115 0 0 40 0 40 -115 0 -115 0 0 -40z"/>
<path d="M14360 11360 c0 -18 7 -20 55 -20 48 0 55 2 55 20 0 18 -7 20 -55 20
-48 0 -55 -2 -55 -20z"/>
<path d="M14977 11374 c-4 -4 -7 -13 -7 -21 0 -9 17 -13 61 -13 52 0 60 2 57
18 -2 13 -15 18 -53 20 -28 2 -54 0 -58 -4z"/>
<path d="M14610 11140 l0 -40 115 0 115 0 0 40 0 40 -115 0 -115 0 0 -40z"/>
<path d="M14360 11140 c0 -18 7 -20 55 -20 48 0 55 2 55 20 0 18 -7 20 -55 20
-48 0 -55 -2 -55 -20z"/>
<path d="M14970 11153 c1 -25 20 -34 66 -31 37 2 50 7 52 21 3 15 -5 17 -57
17 -34 0 -61 -3 -61 -7z"/>
<path d="M13994 10956 c-3 -8 -4 -27 -2 -43 l3 -28 110 0 110 0 0 40 0 40
-108 3 c-86 2 -108 0 -113 -12z"/>
<path d="M14614 10956 c-3 -8 -4 -27 -2 -43 l3 -28 110 0 110 0 0 40 0 40
-108 3 c-86 2 -108 0 -113 -12z"/>
<path d="M15244 10956 c-3 -8 -4 -27 -2 -43 l3 -28 110 0 110 0 0 40 0 40
-108 3 c-86 2 -108 0 -113 -12z"/>
<path d="M14363 10934 c-9 -24 6 -32 54 -30 41 1 48 4 48 21 0 17 -7 20 -48
21 -32 1 -50 -3 -54 -12z"/>
<path d="M14973 10934 c-9 -23 5 -31 57 -33 38 -1 52 3 56 14 9 23 -2 29 -57
31 -34 1 -52 -2 -56 -12z"/>
<path d="M13990 10710 l0 -40 115 0 115 0 0 40 0 40 -115 0 -115 0 0 -40z"/>
<path d="M14610 10710 l0 -40 115 0 115 0 0 40 0 40 -115 0 -115 0 0 -40z"/>
<path d="M15240 10710 l0 -40 115 0 115 0 0 40 0 40 -115 0 -115 0 0 -40z"/>
<path d="M14360 10710 c0 -18 7 -20 55 -20 48 0 55 2 55 20 0 18 -7 20 -55 20
-48 0 -55 -2 -55 -20z"/>
<path d="M14970 10710 c0 -18 7 -20 59 -20 54 0 60 2 58 20 -1 18 -8 20 -59
20 -51 0 -58 -2 -58 -20z"/>
<path d="M13990 10490 l0 -40 115 0 115 0 0 40 0 40 -115 0 -115 0 0 -40z"/>
<path d="M14610 10490 l0 -40 115 0 115 0 0 40 0 40 -115 0 -115 0 0 -40z"/>
<path d="M15240 10490 l0 -40 115 0 115 0 0 40 0 40 -115 0 -115 0 0 -40z"/>
<path d="M14360 10490 c0 -18 7 -20 55 -20 48 0 55 2 55 20 0 18 -7 20 -55 20
-48 0 -55 -2 -55 -20z"/>
<path d="M14974 10493 c4 -23 94 -32 107 -11 16 24 9 28 -50 28 -51 0 -59 -3
-57 -17z"/>
<path d="M13994 10306 c-3 -8 -4 -27 -2 -43 l3 -28 110 0 110 0 0 40 0 40
-108 3 c-86 2 -108 0 -113 -12z"/>
<path d="M14614 10306 c-3 -8 -4 -27 -2 -43 l3 -28 110 0 110 0 0 40 0 40
-108 3 c-86 2 -108 0 -113 -12z"/>
<path d="M15244 10306 c-3 -8 -4 -27 -2 -43 l3 -28 110 0 110 0 0 40 0 40
-108 3 c-86 2 -108 0 -113 -12z"/>
<path d="M14363 10284 c-9 -23 5 -31 54 -30 41 1 48 4 48 21 0 17 -7 20 -48
21 -32 1 -50 -3 -54 -12z"/>
<path d="M14973 10284 c-9 -24 6 -32 56 -30 55 2 66 8 57 31 -7 20 -105 19
-113 -1z"/>
<path d="M13990 10060 l0 -40 115 0 115 0 0 40 0 40 -115 0 -115 0 0 -40z"/>
<path d="M14610 10060 l0 -40 115 0 115 0 0 40 0 40 -115 0 -115 0 0 -40z"/>
<path d="M15240 10060 l0 -40 115 0 115 0 0 40 0 40 -115 0 -115 0 0 -40z"/>
<path d="M14360 10060 c0 -18 7 -20 55 -20 48 0 55 2 55 20 0 18 -7 20 -55 20
-48 0 -55 -2 -55 -20z"/>
<path d="M14970 10060 c0 -18 7 -20 58 -20 51 0 58 2 59 20 2 18 -4 20 -58 20
-52 0 -59 -2 -59 -20z"/>
<path d="M13990 9840 l0 -40 115 0 115 0 0 40 0 40 -115 0 -115 0 0 -40z"/>
<path d="M14610 9840 l0 -40 115 0 115 0 0 40 0 40 -115 0 -115 0 0 -40z"/>
<path d="M15240 9840 l0 -40 115 0 115 0 0 40 0 40 -115 0 -115 0 0 -40z"/>
<path d="M14360 9840 c0 -18 7 -20 55 -20 48 0 55 2 55 20 0 18 -7 20 -55 20
-48 0 -55 -2 -55 -20z"/>
<path d="M14972 9843 c3 -15 14 -18 58 -18 44 0 55 3 58 18 3 15 -5 17 -58 17
-53 0 -61 -2 -58 -17z"/>
<path d="M13994 9656 c-3 -8 -4 -27 -2 -43 l3 -28 110 0 110 0 0 40 0 40 -108
3 c-87 3 -108 1 -113 -12z"/>
<path d="M14614 9655 c-3 -7 -4 -26 -2 -42 l3 -28 110 0 110 0 0 40 0 40 -108
2 c-82 1 -110 -2 -113 -12z"/>
<path d="M15244 9657 c-3 -9 -4 -28 -2 -44 l3 -28 110 0 110 0 0 40 0 40 -108
3 c-88 3 -108 1 -113 -11z"/>
<path d="M14363 9634 c-9 -25 9 -35 58 -33 43 2 49 5 49 24 0 19 -6 21 -51 21
-32 1 -53 -4 -56 -12z"/>
<path d="M14978 9643 c-12 -23 -1 -38 27 -40 53 -2 83 7 81 25 -2 13 -15 18
-54 20 -27 2 -52 -1 -54 -5z"/>
<path d="M13990 9410 l0 -40 115 0 115 0 0 40 0 40 -115 0 -115 0 0 -40z"/>
<path d="M14610 9410 l0 -40 115 0 115 0 0 40 0 40 -115 0 -115 0 0 -40z"/>
<path d="M15240 9410 l0 -40 115 0 115 0 0 40 0 40 -115 0 -115 0 0 -40z"/>
<path d="M14360 9410 c0 -18 7 -20 55 -20 48 0 55 2 55 20 0 18 -7 20 -55 20
-48 0 -55 -2 -55 -20z"/>
<path d="M14970 9410 c0 -18 7 -20 60 -20 53 0 60 2 60 20 0 18 -7 20 -60 20
-53 0 -60 -2 -60 -20z"/>
<path d="M13990 9190 l0 -40 115 0 115 0 0 40 0 40 -115 0 -115 0 0 -40z"/>
<path d="M14610 9190 l0 -40 115 0 115 0 0 40 0 40 -115 0 -115 0 0 -40z"/>
<path d="M15240 9190 l0 -40 115 0 115 0 0 40 0 40 -115 0 -115 0 0 -40z"/>
<path d="M14360 9190 c0 -18 7 -20 55 -20 48 0 55 2 55 20 0 18 -7 20 -55 20
-48 0 -55 -2 -55 -20z"/>
<path d="M14974 9193 c2 -15 13 -18 57 -18 43 0 54 3 57 18 3 15 -5 17 -56 17
-52 0 -60 -2 -58 -17z"/>
<path d="M13990 8980 l0 -40 115 0 115 0 0 40 0 40 -115 0 -115 0 0 -40z"/>
<path d="M14610 8980 l0 -40 115 0 115 0 0 40 0 40 -115 0 -115 0 0 -40z"/>
<path d="M15240 8980 l0 -40 115 0 115 0 0 40 0 40 -115 0 -115 0 0 -40z"/>
<path d="M14360 8980 c0 -18 7 -20 55 -20 48 0 55 2 55 20 0 18 -7 20 -55 20
-48 0 -55 -2 -55 -20z"/>
<path d="M14977 8994 c-4 -4 -7 -13 -7 -21 0 -9 17 -13 59 -13 51 0 59 3 57
18 -2 13 -14 18 -52 20 -28 2 -53 0 -57 -4z"/>
<path d="M13990 8760 l0 -40 115 0 115 0 0 40 0 40 -115 0 -115 0 0 -40z"/>
<path d="M14610 8760 l0 -40 115 0 115 0 0 40 0 40 -115 0 -115 0 0 -40z"/>
<path d="M15240 8760 l0 -40 115 0 115 0 0 40 0 40 -115 0 -115 0 0 -40z"/>
<path d="M14360 8760 c0 -18 7 -20 55 -20 48 0 55 2 55 20 0 18 -7 20 -55 20
-48 0 -55 -2 -55 -20z"/>
<path d="M14970 8760 c0 -18 7 -20 60 -20 53 0 60 2 60 20 0 18 -7 20 -60 20
-53 0 -60 -2 -60 -20z"/>
<path d="M13990 8540 l0 -40 115 0 115 0 0 40 0 40 -115 0 -115 0 0 -40z"/>
<path d="M14610 8540 l0 -40 115 0 115 0 0 40 0 40 -115 0 -115 0 0 -40z"/>
<path d="M15240 8540 l0 -40 115 0 115 0 0 40 0 40 -115 0 -115 0 0 -40z"/>
<path d="M14360 8540 c0 -18 7 -20 55 -20 48 0 55 2 55 20 0 18 -7 20 -55 20
-48 0 -55 -2 -55 -20z"/>
<path d="M14972 8543 c3 -15 14 -18 57 -18 44 0 55 3 57 18 2 15 -6 17 -58 17
-51 0 -59 -2 -56 -17z"/>
<path d="M13990 8330 l0 -40 115 0 115 0 0 40 0 40 -115 0 -115 0 0 -40z"/>
<path d="M14610 8330 l0 -40 115 0 115 0 0 40 0 40 -115 0 -115 0 0 -40z"/>
<path d="M15240 8330 l0 -40 115 0 115 0 0 40 0 40 -115 0 -115 0 0 -40z"/>
<path d="M14360 8330 c0 -18 7 -20 55 -20 48 0 55 2 55 20 0 18 -7 20 -55 20
-48 0 -55 -2 -55 -20z"/>
<path d="M14979 8348 c-9 -37 -8 -38 53 -38 51 0 59 2 56 18 -2 13 -15 18 -56
20 -28 2 -52 2 -53 0z"/>
<path d="M13990 8110 l0 -40 115 0 115 0 0 40 0 40 -115 0 -115 0 0 -40z"/>
<path d="M14610 8110 l0 -40 115 0 115 0 0 40 0 40 -115 0 -115 0 0 -40z"/>
<path d="M15240 8110 l0 -40 115 0 115 0 0 40 0 40 -115 0 -115 0 0 -40z"/>
<path d="M14360 8110 c0 -18 7 -20 55 -20 48 0 55 2 55 20 0 18 -7 20 -55 20
-48 0 -55 -2 -55 -20z"/>
<path d="M14970 8110 c0 -18 7 -20 60 -20 53 0 60 2 60 20 0 18 -7 20 -60 20
-53 0 -60 -2 -60 -20z"/>
<path d="M13994 7927 c-3 -9 -4 -28 -2 -44 l3 -28 110 0 110 0 0 40 0 40 -108
3 c-88 3 -108 1 -113 -11z"/>
<path d="M14614 7926 c-3 -8 -4 -27 -2 -43 l3 -28 110 0 110 0 0 40 0 40 -108
3 c-86 2 -108 0 -113 -12z"/>
<path d="M15244 7926 c-3 -8 -4 -27 -2 -43 l3 -28 110 0 110 0 0 40 0 40 -108
3 c-86 2 -108 0 -113 -12z"/>
<path d="M14364 7905 c-9 -24 2 -30 57 -31 44 -1 49 1 49 21 0 19 -6 22 -50
24 -38 1 -52 -2 -56 -14z"/>
<path d="M14976 7911 c-12 -27 2 -36 53 -36 44 0 55 3 57 18 1 9 -3 18 -9 19
-35 4 -98 4 -101 -1z"/>
<path d="M13990 7680 l0 -40 115 0 115 0 0 40 0 40 -115 0 -115 0 0 -40z"/>
<path d="M14610 7680 l0 -40 115 0 115 0 0 40 0 40 -115 0 -115 0 0 -40z"/>
<path d="M15240 7680 l0 -40 115 0 115 0 0 40 0 40 -115 0 -115 0 0 -40z"/>
<path d="M14360 7680 c0 -18 7 -20 55 -20 48 0 55 2 55 20 0 18 -7 20 -55 20
-48 0 -55 -2 -55 -20z"/>
<path d="M14977 7694 c-4 -4 -7 -13 -7 -21 0 -9 17 -13 61 -13 52 0 60 2 57
18 -2 13 -15 18 -53 20 -28 2 -54 0 -58 -4z"/>
<path d="M13990 7460 l0 -40 115 0 115 0 0 40 0 40 -115 0 -115 0 0 -40z"/>
<path d="M14610 7460 l0 -40 115 0 115 0 0 40 0 40 -115 0 -115 0 0 -40z"/>
<path d="M15240 7460 l0 -40 115 0 115 0 0 40 0 40 -115 0 -115 0 0 -40z"/>
<path d="M14360 7460 c0 -18 7 -20 55 -20 48 0 55 2 55 20 0 18 -7 20 -55 20
-48 0 -55 -2 -55 -20z"/>
<path d="M14970 7460 c0 -18 7 -20 59 -20 54 0 60 2 58 20 -1 18 -8 20 -59 20
-51 0 -58 -2 -58 -20z"/>
<path d="M13994 7276 c-3 -8 -4 -27 -2 -43 l3 -28 110 0 110 0 0 40 0 40 -108
3 c-86 2 -108 0 -113 -12z"/>
<path d="M14614 7276 c-3 -8 -4 -27 -2 -43 l3 -28 110 0 110 0 0 40 0 40 -108
3 c-86 2 -108 0 -113 -12z"/>
<path d="M15244 7276 c-3 -8 -4 -27 -2 -43 l3 -28 110 0 110 0 0 40 0 40 -108
3 c-86 2 -108 0 -113 -12z"/>
<path d="M14363 7254 c-9 -24 6 -32 54 -30 41 1 48 4 48 21 0 17 -7 20 -48 21
-32 1 -50 -3 -54 -12z"/>
<path d="M14973 7254 c-9 -23 5 -31 57 -33 38 -1 52 3 56 14 9 23 -2 29 -57
31 -34 1 -52 -2 -56 -12z"/>
<path d="M13990 7030 l0 -40 115 0 115 0 0 40 0 40 -115 0 -115 0 0 -40z"/>
<path d="M14610 7030 l0 -40 115 0 115 0 0 40 0 40 -115 0 -115 0 0 -40z"/>
<path d="M15240 7030 l0 -40 115 0 115 0 0 40 0 40 -115 0 -115 0 0 -40z"/>
<path d="M14360 7030 c0 -18 7 -20 55 -20 48 0 55 2 55 20 0 18 -7 20 -55 20
-48 0 -55 -2 -55 -20z"/>
<path d="M14979 7048 c-10 -35 -7 -38 53 -38 51 0 59 2 54 16 -3 9 -6 18 -6
20 0 4 -99 6 -101 2z"/>
<path d="M13990 6810 l0 -40 115 0 115 0 0 40 0 40 -115 0 -115 0 0 -40z"/>
<path d="M14610 6810 l0 -40 115 0 115 0 0 40 0 40 -115 0 -115 0 0 -40z"/>
<path d="M15240 6810 l0 -40 115 0 115 0 0 40 0 40 -115 0 -115 0 0 -40z"/>
<path d="M14360 6810 c0 -18 7 -20 55 -20 48 0 55 2 55 20 0 18 -7 20 -55 20
-48 0 -55 -2 -55 -20z"/>
<path d="M14970 6810 c0 -18 7 -20 58 -20 51 0 58 2 59 20 2 18 -4 20 -58 20
-52 0 -59 -2 -59 -20z"/>
<path d="M13994 6626 c-3 -8 -4 -27 -2 -43 l3 -28 110 0 110 0 0 40 0 40 -108
3 c-86 2 -108 0 -113 -12z"/>
<path d="M14614 6626 c-3 -8 -4 -27 -2 -43 l3 -28 110 0 110 0 0 40 0 40 -108
3 c-86 2 -108 0 -113 -12z"/>
<path d="M15244 6626 c-3 -8 -4 -27 -2 -43 l3 -28 110 0 110 0 0 40 0 40 -108
3 c-86 2 -108 0 -113 -12z"/>
<path d="M14363 6604 c-9 -23 5 -31 54 -30 41 1 48 4 48 21 0 17 -7 20 -48 21
-32 1 -50 -3 -54 -12z"/>
<path d="M14973 6604 c-9 -24 6 -32 56 -30 55 2 66 8 57 31 -7 20 -105 19
-113 -1z"/>
<path d="M13990 6380 l0 -40 115 0 115 0 0 40 0 40 -115 0 -115 0 0 -40z"/>
<path d="M14610 6380 l0 -40 115 0 115 0 0 40 0 40 -115 0 -115 0 0 -40z"/>
<path d="M15240 6380 l0 -40 115 0 115 0 0 40 0 40 -115 0 -115 0 0 -40z"/>
<path d="M14360 6380 c0 -18 7 -20 55 -20 48 0 55 2 55 20 0 18 -7 20 -55 20
-48 0 -55 -2 -55 -20z"/>
<path d="M14976 6385 c-3 -9 -6 -19 -6 -21 0 -2 27 -4 61 -4 52 0 60 2 57 18
-5 24 -103 31 -112 7z"/>
<path d="M13990 6160 l0 -40 115 0 115 0 0 40 0 40 -115 0 -115 0 0 -40z"/>
<path d="M14610 6160 l0 -40 115 0 115 0 0 40 0 40 -115 0 -115 0 0 -40z"/>
<path d="M15240 6160 l0 -40 115 0 115 0 0 40 0 40 -115 0 -115 0 0 -40z"/>
<path d="M14360 6160 c0 -18 7 -20 55 -20 48 0 55 2 55 20 0 18 -7 20 -55 20
-48 0 -55 -2 -55 -20z"/>
<path d="M14972 6163 c3 -15 14 -18 58 -18 44 0 55 3 58 18 3 15 -5 17 -58 17
-53 0 -61 -2 -58 -17z"/>
<path d="M13994 5976 c-3 -8 -4 -27 -2 -43 l3 -28 110 0 110 0 0 40 0 40 -108
3 c-87 3 -108 1 -113 -12z"/>
<path d="M14614 5975 c-3 -7 -4 -26 -2 -42 l3 -28 110 0 110 0 0 40 0 40 -108
2 c-82 1 -110 -2 -113 -12z"/>
<path d="M15244 5977 c-3 -9 -4 -28 -2 -44 l3 -28 110 0 110 0 0 40 0 40 -108
3 c-88 3 -108 1 -113 -11z"/>
<path d="M14363 5954 c-9 -25 9 -35 58 -33 43 2 49 5 49 24 0 19 -6 21 -51 21
-32 1 -53 -4 -56 -12z"/>
<path d="M14978 5963 c-12 -23 -1 -38 27 -40 53 -2 83 7 81 25 -2 13 -15 18
-54 20 -27 2 -52 -1 -54 -5z"/>
<path d="M13990 5730 l0 -40 115 0 115 0 0 40 0 40 -115 0 -115 0 0 -40z"/>
<path d="M14610 5730 l0 -40 115 0 115 0 0 40 0 40 -115 0 -115 0 0 -40z"/>
<path d="M15240 5730 l0 -40 115 0 115 0 0 40 0 40 -115 0 -115 0 0 -40z"/>
<path d="M14360 5730 c0 -18 7 -20 55 -20 48 0 55 2 55 20 0 18 -7 20 -55 20
-48 0 -55 -2 -55 -20z"/>
<path d="M14979 5748 c-9 -37 -8 -38 53 -38 51 0 59 2 56 18 -2 13 -15 18 -56
20 -28 2 -52 2 -53 0z"/>
<path d="M11320 11510 l0 -40 40 0 40 0 0 40 0 40 -40 0 -40 0 0 -40z"/>
<path d="M11610 11510 l0 -40 40 0 40 0 0 40 0 40 -40 0 -40 0 0 -40z"/>
<path d="M11900 11510 l0 -40 40 0 40 0 0 40 0 40 -40 0 -40 0 0 -40z"/>
<path d="M11320 11280 l0 -40 40 0 40 0 0 40 0 40 -40 0 -40 0 0 -40z"/>
<path d="M11610 11280 l0 -40 40 0 40 0 0 40 0 40 -40 0 -40 0 0 -40z"/>
<path d="M11900 11280 l0 -40 40 0 40 0 0 40 0 40 -40 0 -40 0 0 -40z"/>
<path d="M5104 11156 c-3 -8 -4 -50 -2 -93 l3 -78 40 0 40 0 0 90 0 90 -38 3
c-26 2 -39 -1 -43 -12z"/>
<path d="M5353 11163 c-9 -3 -13 -32 -13 -94 l0 -89 40 0 40 0 0 95 0 95 -27
-1 c-16 0 -34 -3 -40 -6z"/>
<path d="M5580 11074 l0 -94 40 0 40 0 0 94 0 94 -40 0 -40 1 0 -95z"/>
<path d="M5820 11076 l0 -96 40 0 41 0 -3 92 -3 92 -37 4 -38 3 0 -95z"/>
<path d="M6054 11155 c-3 -6 -4 -47 -2 -91 l3 -79 40 0 40 0 0 90 0 90 -38 1
c-22 1 -41 -4 -43 -11z"/>
<path d="M6296 11162 c-3 -3 -6 -45 -6 -94 l0 -88 40 0 40 0 0 94 0 94 -34 0
c-19 0 -37 -3 -40 -6z"/>
<path d="M5101 10790 l2 -90 43 0 44 0 0 90 0 90 -46 0 -45 0 2 -90z"/>
<path d="M5340 10790 l0 -90 40 0 40 0 0 90 0 90 -40 0 -40 0 0 -90z"/>
<path d="M5580 10790 l0 -90 40 0 40 0 0 90 0 90 -40 0 -40 0 0 -90z"/>
<path d="M5820 10790 l0 -90 40 0 40 0 0 90 0 90 -40 0 -40 0 0 -90z"/>
<path d="M6052 10793 l3 -88 41 -3 41 -3 2 90 2 91 -46 0 -46 0 3 -87z"/>
<path d="M6290 10790 l0 -90 40 0 40 0 0 90 0 90 -40 0 -40 0 0 -90z"/>
<path d="M5104 10577 c-2 -7 -3 -47 -2 -88 l3 -74 40 0 40 0 1 88 2 87 -39 0
c-24 0 -42 -5 -45 -13z"/>
<path d="M5340 10500 l0 -90 40 0 40 0 0 90 0 90 -40 0 -40 0 0 -90z"/>
<path d="M5580 10500 l0 -90 40 0 40 0 0 90 0 90 -40 0 -40 0 0 -90z"/>
<path d="M5820 10500 l0 -90 40 0 40 0 0 90 0 90 -40 0 -40 0 0 -90z"/>
<path d="M6052 10503 l3 -88 40 0 40 0 0 85 0 85 -43 3 -43 3 3 -88z"/>
<path d="M6290 10500 l0 -90 40 0 40 0 0 90 0 90 -40 0 -40 0 0 -90z"/>
<path d="M5105 10298 c-2 -7 -3 -49 -2 -93 l2 -80 40 0 40 0 0 90 0 90 -38 3
c-24 2 -39 -1 -42 -10z"/>
<path d="M5342 10218 l3 -93 38 -3 37 -3 0 95 0 96 -40 0 -41 0 3 -92z"/>
<path d="M5580 10214 l0 -95 38 3 37 3 3 93 3 92 -41 0 -40 0 0 -96z"/>
<path d="M5820 10214 l0 -95 38 3 37 3 3 93 3 92 -41 0 -40 0 0 -96z"/>
<path d="M6057 10303 c-8 -14 -7 -157 2 -171 5 -8 22 -12 42 -10 l34 3 0 90 0
90 -37 3 c-20 2 -38 -1 -41 -5z"/>
<path d="M6292 10218 l3 -93 38 -3 37 -3 0 95 0 96 -40 0 -41 0 3 -92z"/>
<path d="M5101 9930 l-2 -90 45 0 46 0 0 90 0 90 -44 0 -43 0 -2 -90z"/>
<path d="M5340 9930 l0 -90 40 0 40 0 0 90 0 90 -40 0 -40 0 0 -90z"/>
<path d="M5580 9930 l0 -90 40 0 40 0 0 90 0 90 -40 0 -40 0 0 -90z"/>
<path d="M5820 9930 l0 -90 40 0 40 0 0 90 0 90 -40 0 -40 0 0 -90z"/>
<path d="M6057 10013 c-4 -3 -7 -44 -7 -90 l0 -83 46 0 45 0 -2 90 -2 90 -37
0 c-20 0 -40 -3 -43 -7z"/>
<path d="M6290 9930 l0 -90 40 0 40 0 0 90 0 90 -40 0 -40 0 0 -90z"/>
<path d="M11320 11050 l0 -40 40 0 40 0 0 40 0 40 -40 0 -40 0 0 -40z"/>
<path d="M11610 11050 l0 -40 40 0 40 0 0 40 0 40 -40 0 -40 0 0 -40z"/>
<path d="M11900 11050 l0 -40 40 0 40 0 0 40 0 40 -40 0 -40 0 0 -40z"/>
<path d="M11320 10820 l0 -40 40 0 40 0 0 40 0 40 -40 0 -40 0 0 -40z"/>
<path d="M11610 10820 l0 -40 40 0 40 0 0 40 0 40 -40 0 -40 0 0 -40z"/>
<path d="M11900 10820 l0 -40 40 0 40 0 0 40 0 40 -40 0 -40 0 0 -40z"/>
<path d="M2330 9880 l0 -40 115 0 115 0 0 40 0 40 -115 0 -115 0 0 -40z"/>
<path d="M11320 10590 l0 -40 40 0 40 0 0 40 0 40 -40 0 -40 0 0 -40z"/>
<path d="M11610 10590 l0 -40 40 0 40 0 0 40 0 40 -40 0 -40 0 0 -40z"/>
<path d="M11900 10590 l0 -40 40 0 40 0 0 40 0 40 -40 0 -40 0 0 -40z"/>
<path d="M11320 10360 l0 -40 40 0 40 0 0 40 0 40 -40 0 -40 0 0 -40z"/>
<path d="M11610 10360 l0 -40 40 0 40 0 0 40 0 40 -40 0 -40 0 0 -40z"/>
<path d="M11900 10360 l0 -40 40 0 40 0 0 40 0 40 -40 0 -40 0 0 -40z"/>
<path d="M11320 10130 l0 -40 40 0 40 0 0 40 0 40 -40 0 -40 0 0 -40z"/>
<path d="M11610 10130 l0 -40 40 0 40 0 0 40 0 40 -40 0 -40 0 0 -40z"/>
<path d="M11900 10130 l0 -40 40 0 40 0 0 40 0 40 -40 0 -40 0 0 -40z"/>
<path d="M11320 9895 l0 -46 38 3 c36 3 37 4 37 43 0 39 -1 40 -37 43 l-38 3
0 -46z"/>
<path d="M11610 9893 l0 -44 38 3 c36 3 37 4 37 43 0 39 -1 40 -37 42 l-38 1
0 -45z"/>
<path d="M11902 9896 c3 -40 4 -41 38 -41 34 0 35 1 35 40 0 39 -1 40 -38 41
l-38 1 3 -41z"/>
<path d="M11322 9668 c3 -42 4 -43 38 -43 34 0 35 1 35 40 0 39 -1 40 -38 43
l-38 3 3 -43z"/>
<path d="M11615 9702 c-3 -3 -5 -22 -5 -42 0 -36 1 -37 38 -36 36 1 37 2 37
41 0 38 -1 40 -32 41 -18 1 -35 -1 -38 -4z"/>
<path d="M11907 9704 c-4 -4 -7 -24 -7 -43 0 -36 1 -37 38 -36 37 0 37 1 37
40 0 37 -2 40 -30 43 -17 2 -34 0 -38 -4z"/>
<path d="M2330 9590 l0 -40 115 0 115 0 0 40 0 40 -115 0 -115 0 0 -40z"/>
<path d="M2697 9623 c-2 -4 -5 -23 -5 -40 l-1 -33 119 0 119 0 -2 38 -2 37
-112 3 c-61 1 -113 -1 -116 -5z"/>
<path d="M4920 9380 l0 -40 105 0 105 0 0 40 0 40 -105 0 -105 0 0 -40z"/>
<path d="M4920 9190 l0 -40 105 0 105 0 0 40 0 40 -105 0 -105 0 0 -40z"/>
<path d="M4920 9000 l0 -40 105 0 105 0 0 40 0 40 -105 0 -105 0 0 -40z"/>
<path d="M4920 8819 c0 -47 11 -51 125 -47 l80 3 0 40 0 40 -102 2 -103 1 0
-39z"/>
<path d="M4933 8664 c-7 -3 -13 -23 -13 -44 l0 -38 103 1 102 2 0 40 0 40 -90
2 c-49 1 -96 -1 -102 -3z"/>
<path d="M4850 8380 c0 -19 7 -20 180 -20 173 0 180 1 180 20 0 19 -7 20 -180
20 -173 0 -180 -1 -180 -20z"/>
<path d="M4920 8140 l0 -40 105 0 105 0 0 40 0 40 -105 0 -105 0 0 -40z"/>
<path d="M4920 7950 l0 -40 105 0 105 0 0 40 0 40 -105 0 -105 0 0 -40z"/>
<path d="M4920 7760 l0 -40 105 0 105 0 0 40 0 40 -105 0 -105 0 0 -40z"/>
<path d="M4920 7570 l0 -40 105 0 105 0 0 40 0 40 -105 0 -105 0 0 -40z"/>
<path d="M4920 7380 l0 -40 105 0 105 0 0 40 0 40 -105 0 -105 0 0 -40z"/>
<path d="M4850 7130 c0 -19 7 -20 180 -20 173 0 180 1 180 20 0 19 -7 20 -180
20 -173 0 -180 -1 -180 -20z"/>
<path d="M4920 6890 l0 -40 105 0 105 0 0 40 0 40 -105 0 -105 0 0 -40z"/>
<path d="M4920 6700 l0 -40 105 0 105 0 0 40 0 40 -105 0 -105 0 0 -40z"/>
<path d="M4920 6516 l0 -44 103 1 102 2 0 40 0 40 -102 3 -103 3 0 -45z"/>
<path d="M4920 6325 l0 -46 103 3 102 3 0 40 0 40 -102 3 -103 3 0 -46z"/>
<path d="M4920 6140 l0 -40 105 0 105 0 0 40 0 40 -105 0 -105 0 0 -40z"/>
<path d="M5470 9380 l0 -40 105 0 105 0 0 40 0 40 -105 0 -105 0 0 -40z"/>
<path d="M5814 9383 l1 -38 105 0 105 0 1 38 1 37 -107 0 -107 0 1 -37z"/>
<path d="M5470 9190 l0 -40 105 0 105 0 0 40 0 40 -105 0 -105 0 0 -40z"/>
<path d="M5812 9193 l3 -38 105 0 105 0 3 38 3 37 -111 0 -111 0 3 -37z"/>
<path d="M5470 9000 l0 -40 105 0 105 0 0 40 0 40 -105 0 -105 0 0 -40z"/>
<path d="M5812 9003 l3 -38 105 0 105 0 3 38 3 37 -111 0 -111 0 3 -37z"/>
<path d="M5477 8854 c-4 -4 -7 -24 -7 -45 l0 -37 103 1 102 2 0 40 0 40 -95 3
c-53 1 -99 0 -103 -4z"/>
<path d="M5814 8846 c-3 -8 -4 -27 -2 -43 l3 -28 105 0 105 0 0 40 0 40 -103
3 c-82 2 -103 0 -108 -12z"/>
<path d="M5472 8627 l3 -42 100 0 100 0 0 40 0 40 -103 2 -103 1 3 -41z"/>
<path d="M5814 8656 c-3 -8 -4 -27 -2 -43 l3 -28 105 0 105 0 0 40 0 40 -103
3 c-82 2 -103 0 -108 -12z"/>
<path d="M5380 8380 c0 -20 7 -20 350 -20 343 0 350 0 350 20 0 20 -7 20 -350
20 -343 0 -350 0 -350 -20z"/>
<path d="M5470 8140 l0 -40 105 0 105 0 0 40 0 40 -105 0 -105 0 0 -40z"/>
<path d="M5819 8178 c-1 -2 -3 -20 -4 -40 l-2 -38 107 0 107 0 -1 38 -1 37
-102 3 c-57 1 -104 1 -104 0z"/>
<path d="M5470 7950 l0 -40 105 0 105 0 0 40 0 40 -105 0 -105 0 0 -40z"/>
<path d="M5816 7981 c-4 -5 -5 -24 -4 -40 l2 -31 107 0 106 0 -1 38 -1 37
-102 3 c-58 1 -104 -1 -107 -7z"/>
<path d="M5470 7760 l0 -40 105 0 105 0 0 40 0 40 -105 0 -105 0 0 -40z"/>
<path d="M5810 7760 l0 -40 110 0 110 0 0 40 0 40 -110 0 -110 0 0 -40z"/>
<path d="M5470 7570 l0 -40 105 0 105 0 0 40 0 40 -105 0 -105 0 0 -40z"/>
<path d="M5812 7573 l4 -38 104 0 104 0 4 38 3 37 -111 0 -111 0 3 -37z"/>
<path d="M5470 7380 l0 -40 105 0 105 0 0 40 0 40 -105 0 -105 0 0 -40z"/>
<path d="M5814 7383 l1 -38 105 0 105 0 1 38 2 37 -108 0 -108 0 2 -37z"/>
<path d="M5380 7130 c0 -20 7 -20 350 -20 343 0 350 0 350 20 0 20 -7 20 -350
20 -343 0 -350 0 -350 -20z"/>
<path d="M5470 6890 l0 -40 105 0 105 0 0 40 0 40 -105 0 -105 0 0 -40z"/>
<path d="M5813 6893 l2 -38 105 0 105 0 2 38 2 37 -109 0 -109 0 2 -37z"/>
<path d="M5470 6700 l0 -40 105 0 105 0 0 40 0 40 -105 0 -105 0 0 -40z"/>
<path d="M5814 6726 c-3 -8 -4 -25 -2 -38 3 -22 6 -23 108 -23 l105 0 0 35 0
35 -103 3 c-82 2 -103 0 -108 -12z"/>
<path d="M5470 6515 l0 -46 103 3 102 3 3 34 c2 19 -2 37 -8 41 -7 4 -55 8
-106 9 l-94 2 0 -46z"/>
<path d="M5817 6553 c-2 -4 -3 -24 -3 -43 l1 -35 105 0 105 0 0 40 0 40 -102
3 c-56 1 -103 -1 -106 -5z"/>
<path d="M5470 6324 l0 -45 103 3 102 3 0 40 0 40 -102 2 -103 1 0 -44z"/>
<path d="M5816 6363 c-8 -8 -8 -47 0 -67 5 -13 24 -16 105 -16 96 0 99 1 105
24 14 57 7 61 -103 63 -55 1 -104 -1 -107 -4z"/>
<path d="M5470 6140 l0 -40 105 0 105 0 0 40 0 40 -105 0 -105 0 0 -40z"/>
<path d="M5819 6178 c-1 -2 -3 -20 -4 -40 l-2 -38 107 0 107 0 -1 38 -1 37
-102 3 c-57 1 -104 1 -104 0z"/>
<path d="M6340 9380 l0 -40 105 0 105 0 0 40 0 40 -105 0 -105 0 0 -40z"/>
<path d="M6340 9190 l0 -40 105 0 105 0 0 40 0 40 -105 0 -105 0 0 -40z"/>
<path d="M6340 9000 l0 -40 105 0 105 0 0 40 0 40 -105 0 -105 0 0 -40z"/>
<path d="M6340 8816 l0 -43 103 1 102 1 0 40 0 40 -102 2 -103 2 0 -43z"/>
<path d="M6340 8624 l0 -43 103 2 102 2 0 40 0 40 -102 1 -103 1 0 -43z"/>
<path d="M6260 8380 c0 -19 7 -20 180 -20 173 0 180 1 180 20 0 19 -7 20 -180
20 -173 0 -180 -1 -180 -20z"/>
<path d="M6340 8140 l0 -40 105 0 105 0 0 40 0 40 -105 0 -105 0 0 -40z"/>
<path d="M6340 7950 l0 -40 105 0 105 0 0 40 0 40 -105 0 -105 0 0 -40z"/>
<path d="M6340 7760 l0 -40 105 0 105 0 0 40 0 40 -105 0 -105 0 0 -40z"/>
<path d="M6340 7570 l0 -40 105 0 105 0 0 40 0 40 -105 0 -105 0 0 -40z"/>
<path d="M6340 7380 l0 -40 105 0 105 0 0 40 0 40 -105 0 -105 0 0 -40z"/>
<path d="M6260 7130 c0 -19 7 -20 180 -20 173 0 180 1 180 20 0 19 -7 20 -180
20 -173 0 -180 -1 -180 -20z"/>
<path d="M6340 6890 l0 -40 105 0 105 0 0 40 0 40 -105 0 -105 0 0 -40z"/>
<path d="M6340 6700 l0 -40 105 0 105 0 0 40 0 40 -105 0 -105 0 0 -40z"/>
<path d="M6340 6515 l0 -46 103 3 102 3 0 40 0 40 -102 3 -103 3 0 -46z"/>
<path d="M6340 6326 l0 -47 103 3 102 3 0 40 0 40 -102 3 -103 4 0 -46z"/>
<path d="M6340 6140 l0 -40 105 0 105 0 0 40 0 40 -105 0 -105 0 0 -40z"/>
<path d="M11320 9435 l0 -46 38 3 c36 4 37 5 37 43 0 39 -1 40 -37 43 l-38 3
0 -46z"/>
<path d="M11610 9437 l0 -44 38 2 c36 1 37 2 37 40 0 39 -1 40 -37 43 l-38 3
0 -44z"/>
<path d="M11900 9435 l0 -46 38 3 c36 4 37 5 37 43 0 39 -1 40 -37 43 l-38 3
0 -46z"/>
<path d="M2330 9300 l0 -40 115 0 115 0 0 40 0 40 -115 0 -115 0 0 -40z"/>
<path d="M2694 9300 l1 -40 117 0 117 0 -1 40 0 40 -118 0 -117 0 1 -40z"/>
<path d="M3060 9300 l0 -40 115 0 115 0 0 40 0 40 -115 0 -115 0 0 -40z"/>
<path d="M11320 9205 l0 -46 38 3 c36 3 37 4 37 43 0 38 -1 39 -37 43 l-38 3
0 -46z"/>
<path d="M11610 9203 l0 -44 38 3 c36 3 37 4 37 43 0 38 -1 39 -37 40 l-38 2
0 -44z"/>
<path d="M11900 9205 l0 -46 38 3 c36 3 37 4 37 43 0 38 -1 39 -37 43 l-38 3
0 -46z"/>
<path d="M2330 9010 l0 -40 115 0 115 0 0 40 0 40 -115 0 -115 0 0 -40z"/>
<path d="M2694 9013 l1 -38 114 0 114 0 4 38 4 37 -119 0 -119 0 1 -37z"/>
<path d="M3060 9010 l0 -40 115 0 115 0 0 40 0 40 -115 0 -115 0 0 -40z"/>
<path d="M11327 9014 c-4 -4 -7 -25 -7 -46 0 -39 0 -39 38 -36 36 3 37 4 37
43 0 37 -2 40 -30 43 -17 2 -34 0 -38 -4z"/>
<path d="M11612 8976 c3 -40 4 -41 38 -41 34 0 35 1 35 40 0 39 0 40 -38 41
l-38 1 3 -41z"/>
<path d="M11900 8972 l0 -43 38 3 c36 3 37 4 37 43 0 39 0 40 -37 40 l-38 1 0
-44z"/>
<path d="M17146 8432 c-3 -4 -4 -22 -4 -40 l1 -32 64 0 63 0 0 40 0 40 -59 0
c-33 0 -62 -4 -65 -8z"/>
<path d="M2330 8720 l0 -40 115 0 115 0 0 40 0 40 -115 0 -115 0 0 -40z"/>
<path d="M2694 8735 c-13 -52 -4 -56 118 -53 l112 3 4 38 3 37 -115 0 c-115 0
-116 0 -122 -25z"/>
<path d="M3060 8720 l0 -40 115 0 115 0 0 40 0 40 -115 0 -115 0 0 -40z"/>
<path d="M11320 8745 l0 -46 38 3 c36 3 37 4 37 43 0 39 -1 40 -37 43 l-38 3
0 -46z"/>
<path d="M11610 8747 l0 -45 38 1 c36 2 37 3 37 42 0 39 -1 40 -37 43 l-38 3
0 -44z"/>
<path d="M11906 8783 c-3 -3 -6 -23 -6 -43 0 -37 1 -37 38 -36 36 1 37 2 37
41 0 37 -2 40 -31 42 -17 1 -34 0 -38 -4z"/>
<path d="M11320 8510 l0 -40 40 0 40 0 0 40 0 40 -40 0 -40 0 0 -40z"/>
<path d="M11610 8510 l0 -40 40 0 40 0 0 40 0 40 -40 0 -40 0 0 -40z"/>
<path d="M11900 8510 l0 -40 40 0 40 0 0 40 0 40 -40 0 -40 0 0 -40z"/>
<path d="M2334 8466 c-3 -8 -4 -27 -2 -43 l3 -28 113 -3 112 -3 0 45 0 46
-110 0 c-86 0 -112 -3 -116 -14z"/>
<path d="M2697 8473 c-2 -4 -3 -24 -3 -43 l1 -35 95 -3 c131 -4 142 -1 138 46
l-3 37 -112 3 c-61 1 -113 -1 -116 -5z"/>
<path d="M3062 8438 l3 -43 113 -3 112 -3 0 46 0 45 -116 0 -115 0 3 -42z"/>
<path d="M11320 8280 l0 -40 40 0 40 0 0 40 0 40 -40 0 -40 0 0 -40z"/>
<path d="M11610 8280 l0 -40 40 0 40 0 0 40 0 40 -40 0 -40 0 0 -40z"/>
<path d="M11900 8280 l0 -40 40 0 40 0 0 40 0 40 -40 0 -40 0 0 -40z"/>
<path d="M2330 8150 l0 -40 115 0 115 0 0 40 0 40 -115 0 -115 0 0 -40z"/>
<path d="M2697 8183 c-2 -4 -5 -23 -5 -40 l-1 -33 119 0 119 0 -2 38 -2 37
-112 3 c-61 1 -113 -1 -116 -5z"/>
<path d="M3060 8150 l0 -40 115 0 115 0 0 40 0 40 -115 0 -115 0 0 -40z"/>
<path d="M11320 8050 l0 -40 40 0 40 0 0 40 0 40 -40 0 -40 0 0 -40z"/>
<path d="M11610 8050 l0 -40 40 0 40 0 0 40 0 40 -40 0 -40 0 0 -40z"/>
<path d="M11900 8050 l0 -40 40 0 40 0 0 40 0 40 -40 0 -40 0 0 -40z"/>
<path d="M2330 7860 l0 -40 115 0 115 0 0 40 0 40 -115 0 -115 0 0 -40z"/>
<path d="M2694 7886 c-3 -8 -4 -25 -2 -38 3 -22 6 -23 121 -26 l118 -3 -3 38
-4 38 -112 3 c-91 2 -113 0 -118 -12z"/>
<path d="M3060 7860 l0 -40 115 0 115 0 0 40 0 40 -115 0 -115 0 0 -40z"/>
<path d="M17180 7680 l0 -40 45 0 45 0 0 40 0 40 -45 0 -45 0 0 -40z"/>
<path d="M17187 7343 c-4 -3 -7 -23 -7 -43 l0 -37 60 -2 60 -2 0 45 0 46 -53
0 c-30 0 -57 -3 -60 -7z"/>
<path d="M11610 6790 l0 -40 40 0 40 0 0 40 0 40 -40 0 -40 0 0 -40z"/>
<path d="M11612 6598 c3 -42 4 -43 38 -43 34 0 35 1 35 40 0 39 -1 40 -38 43
l-38 3 3 -43z"/>
<path d="M11610 6400 l0 -40 40 0 40 0 0 40 0 40 -40 0 -40 0 0 -40z"/>
<path d="M11610 6200 l0 -40 40 0 40 0 0 40 0 40 -40 0 -40 0 0 -40z"/>
<path d="M2330 7570 l0 -40 115 0 115 0 0 40 0 40 -115 0 -115 0 0 -40z"/>
<path d="M2692 7573 l4 -38 115 -3 114 -3 1 41 1 40 -119 0 -119 0 3 -37z"/>
<path d="M3060 7570 l0 -40 115 0 115 0 0 40 0 40 -115 0 -115 0 0 -40z"/>
<path d="M2330 7280 l0 -40 115 0 115 0 0 40 0 40 -115 0 -115 0 0 -40z"/>
<path d="M2690 7280 l0 -40 118 0 119 0 0 40 0 40 -119 0 -118 0 0 -40z"/>
<path d="M3060 7280 l0 -40 115 0 115 0 0 40 0 40 -115 0 -115 0 0 -40z"/>
<path d="M10450 6955 l0 -165 40 0 40 0 0 165 0 165 -40 0 -40 0 0 -165z"/>
<path d="M10640 6955 l0 -165 45 0 45 0 0 165 0 165 -45 0 -45 0 0 -165z"/>
<path d="M10840 6955 l0 -165 40 0 40 0 0 165 0 165 -40 0 -40 0 0 -165z"/>
<path d="M12370 6955 l0 -165 45 0 45 0 0 165 0 165 -45 0 -45 0 0 -165z"/>
<path d="M12570 6955 l0 -165 40 0 40 0 0 165 0 165 -40 0 -40 0 0 -165z"/>
<path d="M12770 6955 l0 -165 40 0 40 0 0 165 0 165 -40 0 -40 0 0 -165z"/>
<path d="M7660 6981 l0 -41 54 0 54 0 -1 38 -2 37 -52 3 -53 3 0 -40z"/>
<path d="M7887 7013 c-4 -3 -7 -21 -7 -40 l0 -33 55 0 55 0 0 40 0 40 -48 0
c-27 0 -52 -3 -55 -7z"/>
<path d="M8110 6980 l0 -40 50 0 50 0 0 40 0 40 -50 0 -50 0 0 -40z"/>
<path d="M8330 6980 l0 -40 55 0 55 0 0 40 0 40 -55 0 -55 0 0 -40z"/>
<path d="M8560 6980 l0 -40 50 0 50 0 0 40 0 40 -50 0 -50 0 0 -40z"/>
<path d="M8780 6981 l0 -41 54 0 54 0 -1 38 -2 37 -52 3 -53 3 0 -40z"/>
<path d="M9010 6980 l0 -40 50 0 50 0 0 40 0 40 -50 0 -50 0 0 -40z"/>
<path d="M9230 6980 l0 -40 54 0 55 0 -1 40 0 40 -54 0 -54 0 0 -40z"/>
<path d="M7660 6801 l0 -41 54 0 53 0 -1 38 -1 37 -52 3 -53 3 0 -40z"/>
<path d="M7887 6833 c-4 -3 -7 -21 -7 -40 l0 -33 55 0 55 0 0 40 0 40 -48 0
c-27 0 -52 -3 -55 -7z"/>
<path d="M8110 6800 l0 -40 50 0 50 0 0 40 0 40 -50 0 -50 0 0 -40z"/>
<path d="M8330 6800 l0 -40 55 0 55 0 0 40 0 40 -55 0 -55 0 0 -40z"/>
<path d="M8560 6800 l0 -40 50 0 50 0 0 40 0 40 -50 0 -50 0 0 -40z"/>
<path d="M8780 6801 l0 -41 54 0 53 0 -1 38 -1 37 -52 3 -53 3 0 -40z"/>
<path d="M9010 6800 l0 -40 50 0 50 0 0 40 0 40 -50 0 -50 0 0 -40z"/>
<path d="M9230 6801 l0 -41 54 0 54 0 -1 38 -2 37 -52 3 -53 3 0 -40z"/>
<path d="M7660 6616 l0 -46 49 0 c53 0 59 6 57 55 -1 29 -3 30 -53 33 l-53 3
0 -45z"/>
<path d="M7884 6646 c-3 -8 -4 -27 -2 -43 3 -27 6 -28 53 -28 l50 0 0 40 0 40
-48 2 c-33 2 -49 -2 -53 -11z"/>
<path d="M8110 6615 l0 -46 50 2 51 3 -3 40 -3 41 -47 3 -48 3 0 -46z"/>
<path d="M8334 6646 c-3 -8 -4 -27 -2 -43 3 -27 6 -28 53 -28 l50 0 0 40 0 40
-48 2 c-33 2 -49 -2 -53 -11z"/>
<path d="M8560 6615 l0 -46 48 3 47 3 3 41 3 40 -51 3 -50 2 0 -46z"/>
<path d="M8784 6646 c-3 -8 -4 -27 -2 -43 3 -26 7 -28 49 -31 51 -3 57 3 55
53 -1 29 -3 30 -49 33 -34 2 -49 -1 -53 -12z"/>
<path d="M9017 6653 c-4 -3 -7 -23 -7 -43 l0 -36 50 -3 50 -2 0 44 0 44 -43 1
c-24 1 -47 -1 -50 -5z"/>
<path d="M9230 6615 l0 -46 53 3 52 3 0 40 0 40 -52 3 -53 3 0 -46z"/>
<path d="M7660 6429 l0 -40 53 3 52 3 3 38 3 37 -55 0 -56 0 0 -41z"/>
<path d="M7885 6450 c-3 -11 -3 -29 0 -40 5 -16 15 -20 56 -20 l49 0 0 40 0
40 -49 0 c-41 0 -51 -4 -56 -20z"/>
<path d="M8110 6430 l0 -40 50 0 50 0 0 40 0 40 -50 0 -50 0 0 -40z"/>
<path d="M8330 6430 l0 -40 55 0 55 0 0 40 0 40 -55 0 -55 0 0 -40z"/>
<path d="M8560 6430 l0 -40 50 0 50 0 0 40 0 40 -50 0 -50 0 0 -40z"/>
<path d="M8780 6429 l0 -40 53 3 52 3 3 38 3 37 -55 0 -56 0 0 -41z"/>
<path d="M9010 6430 l0 -40 50 0 50 0 0 40 0 40 -50 0 -50 0 0 -40z"/>
<path d="M9230 6429 l0 -40 52 3 52 3 4 38 3 37 -55 0 -56 0 0 -41z"/>
<path d="M7660 6249 l0 -40 53 3 52 3 3 38 3 37 -55 0 -56 0 0 -41z"/>
<path d="M7882 6253 l3 -38 53 -3 52 -3 0 40 0 41 -56 0 -55 0 3 -37z"/>
<path d="M8110 6250 l0 -40 50 0 50 0 0 40 0 40 -50 0 -50 0 0 -40z"/>
<path d="M8330 6250 l0 -40 55 0 55 0 0 40 0 40 -55 0 -55 0 0 -40z"/>
<path d="M8560 6250 l0 -40 50 0 50 0 0 40 0 40 -50 0 -50 0 0 -40z"/>
<path d="M8780 6249 l0 -40 53 3 52 3 3 38 3 37 -55 0 -56 0 0 -41z"/>
<path d="M9010 6250 l0 -40 50 0 50 0 0 40 0 40 -50 0 -50 0 0 -40z"/>
<path d="M9230 6250 l0 -41 53 3 52 3 0 35 0 35 -52 3 -53 3 0 -41z"/>
<path d="M7660 6070 l0 -40 53 0 53 0 2 40 3 40 -56 0 -55 0 0 -40z"/>
<path d="M7884 6085 c-11 -44 1 -55 56 -55 l50 0 0 40 0 40 -50 0 c-45 0 -50
-3 -56 -25z"/>
<path d="M8110 6070 l0 -40 50 0 50 0 0 40 0 40 -50 0 -50 0 0 -40z"/>
<path d="M8330 6070 l0 -40 55 0 55 0 0 40 0 40 -55 0 -55 0 0 -40z"/>
<path d="M8560 6070 l0 -40 50 0 50 0 0 40 0 40 -50 0 -50 0 0 -40z"/>
<path d="M8780 6070 l0 -40 53 0 53 0 2 40 3 40 -56 0 -55 0 0 -40z"/>
<path d="M9010 6070 l0 -40 50 0 50 0 0 40 0 40 -50 0 -50 0 0 -40z"/>
<path d="M9230 6070 l0 -40 54 0 54 0 -1 40 -1 40 -53 0 -53 0 0 -40z"/>
<path d="M7660 5891 l0 -41 56 0 55 0 -3 38 -3 37 -52 3 -53 3 0 -40z"/>
<path d="M7885 5910 c-3 -11 -3 -29 0 -40 5 -16 15 -20 56 -20 l49 0 0 40 0
40 -49 0 c-41 0 -51 -4 -56 -20z"/>
<path d="M8110 5890 l0 -40 50 0 50 0 0 40 0 40 -50 0 -50 0 0 -40z"/>
<path d="M8330 5890 l0 -40 55 0 55 0 0 40 0 40 -55 0 -55 0 0 -40z"/>
<path d="M8560 5890 l0 -40 50 0 50 0 0 40 0 40 -50 0 -50 0 0 -40z"/>
<path d="M8780 5891 l0 -41 56 0 55 0 -3 38 -3 37 -52 3 -53 3 0 -40z"/>
<path d="M9010 5890 l0 -40 50 0 50 0 0 40 0 40 -50 0 -50 0 0 -40z"/>
<path d="M9230 5891 l0 -41 56 0 55 0 -3 38 -4 37 -52 3 -52 3 0 -40z"/>
<path d="M2330 6990 l0 -40 115 0 115 0 0 40 0 40 -115 0 -115 0 0 -40z"/>
<path d="M2694 6998 c2 -18 4 -37 5 -41 0 -4 52 -6 114 -5 l112 3 2 38 1 37
-118 0 -118 0 2 -32z"/>
<path d="M3060 6990 l0 -40 115 0 115 0 0 40 0 40 -115 0 -115 0 0 -40z"/>
<path d="M2334 6735 c-3 -7 -4 -26 -2 -42 l3 -28 113 -3 112 -3 0 46 0 45
-111 -1 c-82 -1 -112 -4 -115 -14z"/>
<path d="M2694 6736 c-3 -8 -4 -27 -2 -43 l3 -28 115 0 115 0 0 40 0 40 -113
3 c-91 2 -113 0 -118 -12z"/>
<path d="M3060 6704 l0 -42 115 -1 115 -2 0 46 0 46 -115 -2 -115 -2 0 -43z"/>
<path d="M17180 6270 l0 -40 60 0 60 0 0 40 0 40 -60 0 -60 0 0 -40z"/>
<path d="M10350 6400 l0 -40 309 0 308 0 -1 38 -1 37 -307 3 -308 2 0 -40z"/>
<path d="M10350 6200 c0 -20 5 -20 307 -18 284 3 308 4 311 21 3 16 -17 17
-307 17 -305 0 -311 0 -311 -20z"/>
<path d="M10350 6004 l0 -44 307 2 c289 3 308 4 311 21 2 10 1 30 -2 43 l-6
24 -305 0 -305 -1 0 -45z"/>
<path d="M12327 6433 c-4 -3 -7 -21 -7 -40 l0 -33 310 0 310 0 0 40 0 40 -303
0 c-167 0 -307 -3 -310 -7z"/>
<path d="M12322 6203 c3 -17 27 -18 311 -21 302 -2 307 -2 307 18 0 20 -6 20
-311 20 -290 0 -310 -1 -307 -17z"/>
<path d="M12324 6036 c-3 -8 -4 -27 -2 -43 l3 -28 308 -3 307 -3 0 46 0 45
-305 0 c-254 0 -307 -2 -311 -14z"/>
<path d="M2334 6445 c-3 -7 -4 -26 -2 -42 l3 -28 113 -3 112 -3 0 46 0 45
-111 -1 c-81 -1 -112 -4 -115 -14z"/>
<path d="M2694 6446 c-3 -8 -4 -27 -2 -43 l3 -28 115 0 115 0 0 40 0 40 -113
3 c-91 2 -113 0 -118 -12z"/>
<path d="M3060 6416 l0 -43 115 -2 115 -2 0 46 0 46 -115 -2 -115 -1 0 -42z"/>
<path d="M2330 6130 l0 -40 115 0 115 0 0 40 0 40 -115 0 -115 0 0 -40z"/>
<path d="M2699 6163 c-1 -4 -3 -23 -5 -40 l-2 -33 118 0 118 0 -1 38 -2 37
-112 3 c-62 1 -114 -1 -114 -5z"/>
<path d="M3060 6130 l0 -40 115 0 115 0 0 40 0 40 -115 0 -115 0 0 -40z"/>
<path d="M2330 5840 l0 -40 115 0 115 0 0 40 0 40 -115 0 -115 0 0 -40z"/>
<path d="M2690 5840 l0 -40 118 0 119 0 0 40 0 40 -119 0 -118 0 0 -40z"/>
<path d="M3060 5840 l0 -40 115 0 115 0 0 40 0 40 -115 0 -115 0 0 -40z"/>
<path d="M13674 17655 c-9 -23 12 -35 66 -35 25 0 55 -3 68 -6 17 -5 22 -2 22
14 0 23 -12 28 -92 38 -49 5 -59 4 -64 -11z"/>
<path d="M13398 17609 c-62 -24 -120 -61 -186 -117 -48 -40 -52 -46 -38 -60
13 -13 20 -10 68 32 29 26 90 66 136 88 45 23 82 44 82 47 -1 25 -18 28 -62
10z"/>
<path d="M13581 17454 c-165 -34 -314 -158 -367 -304 -16 -43 -21 -50 -39 -45
-125 37 -222 26 -311 -34 -106 -72 -158 -175 -152 -296 7 -130 73 -231 186
-287 60 -30 76 -33 152 -33 103 0 155 21 229 90 l49 46 49 -37 c159 -122 372
-137 551 -38 l64 34 36 -28 c87 -69 168 -86 266 -58 67 20 136 78 168 140 29
56 35 150 14 213 -33 100 -138 181 -238 186 l-46 2 -13 60 c-21 98 -71 185
-148 258 -80 75 -152 113 -258 133 -83 16 -105 15 -192 -2z m285 -113 c123
-58 213 -177 235 -312 20 -121 9 -109 97 -109 68 0 84 -4 119 -27 40 -26 83
-86 83 -116 0 -26 -47 -74 -95 -96 -91 -43 -192 -18 -262 65 l-38 44 -65 -46
c-180 -125 -405 -108 -568 43 -25 24 -51 43 -57 43 -6 0 -19 -16 -30 -36 -24
-45 -66 -81 -130 -110 -93 -44 -206 -26 -288 46 -81 71 -88 117 -32 202 74
111 216 145 338 80 61 -33 74 -26 101 58 42 129 121 222 231 275 107 50 248
49 361 -4z m-482 -619 c156 -126 398 -134 570 -21 l46 31 21 -26 c77 -98 248
-112 356 -30 l35 27 -7 -24 c-12 -41 -55 -99 -88 -119 -84 -52 -177 -35 -253
46 -28 30 -55 54 -60 54 -5 0 -33 -18 -62 -39 -83 -63 -151 -85 -262 -85 -89
-1 -100 2 -171 36 -47 22 -97 56 -128 86 -61 60 -79 59 -116 -5 -99 -168 -355
-158 -446 19 -29 57 -23 63 23 24 63 -54 138 -79 224 -74 89 6 150 34 212 98
51 52 44 52 106 2z"/>
<path d="M22875 17286 c-74 -20 -120 -42 -160 -77 l-36 -32 27 -28 c28 -29 28
-29 48 -10 34 32 127 69 191 76 87 9 181 -8 440 -78 226 -60 232 -62 360 -62
116 0 135 2 175 23 25 12 56 32 69 43 l24 20 -28 29 c-25 26 -30 28 -44 15
-39 -34 -106 -55 -183 -55 -88 0 -166 15 -363 69 -276 77 -417 95 -520 67z"/>
<path d="M22970 17073 c-64 -5 -145 -34 -194 -70 -42 -30 -47 -37 -34 -49 13
-13 21 -10 67 20 29 20 71 41 94 47 58 16 225 6 314 -19 64 -17 73 -18 78 -4
9 23 -2 28 -105 50 -100 22 -162 29 -220 25z"/>
<path d="M14452 16439 c-49 -43 -135 -79 -188 -79 -22 0 -37 -6 -41 -16 -10
-26 9 -33 67 -23 70 11 166 58 209 102 31 33 32 36 15 45 -15 8 -27 2 -62 -29z"/>
<path d="M25910 16336 c-154 -32 -260 -162 -260 -321 0 -263 290 -416 512
-270 36 24 38 24 83 8 124 -42 274 24 327 143 48 110 29 215 -56 299 -77 78
-162 100 -260 71 -46 -14 -47 -14 -97 20 -77 51 -161 68 -249 50z m165 -95
c22 -10 55 -32 74 -49 37 -36 60 -39 96 -16 39 25 123 22 175 -7 47 -25 90
-86 90 -127 0 -34 -28 -70 -74 -96 -58 -34 -113 -41 -167 -21 -79 30 -88 30
-118 1 -61 -58 -176 -81 -260 -51 -85 30 -161 110 -161 169 1 71 67 162 145
197 53 24 147 24 200 0z m425 -310 c0 -20 -56 -75 -95 -92 -55 -26 -107 -24
-166 6 l-50 26 -43 -35 c-58 -48 -105 -66 -171 -66 -85 0 -154 37 -207 113
l-22 32 38 -29 c114 -86 270 -86 381 -1 33 25 36 25 65 10 70 -36 164 -28 231
19 41 29 39 28 39 17z"/>
<path d="M11630 15795 c0 -58 2 -65 20 -65 18 0 20 7 20 65 0 58 -2 65 -20 65
-18 0 -20 -7 -20 -65z"/>
<path d="M17500 14644 c-294 -78 -516 -270 -592 -514 -34 -111 -32 -287 5
-424 83 -303 257 -525 577 -736 177 -116 436 -226 578 -245 l53 -7 -6 -76
c-16 -215 -18 -187 33 -301 26 -57 54 -109 63 -114 12 -7 52 6 160 53 79 35
150 68 157 73 21 16 14 50 -32 152 l-45 99 -110 83 -111 83 37 48 c75 97 159
311 205 523 19 90 22 133 22 324 0 208 -2 226 -27 320 -33 123 -118 296 -190
390 -102 133 -262 242 -412 280 -94 24 -251 19 -365 -11z m418 -130 c110 -71
216 -201 301 -371 91 -182 124 -344 121 -593 -2 -197 -16 -326 -19 -170 -1
122 -25 322 -50 425 -74 303 -244 595 -431 739 -32 25 -33 26 -7 16 15 -5 53
-26 85 -46z m-198 4 c137 -65 296 -265 394 -497 87 -205 120 -392 120 -666 0
-157 -19 -374 -31 -361 -3 2 -7 71 -9 153 -12 370 -71 662 -180 890 -93 194
-272 420 -388 488 -25 15 -46 29 -46 31 0 12 81 -11 140 -38z m-231 -142 c121
-206 296 -591 422 -928 61 -163 169 -475 169 -487 -1 -27 -346 641 -435 844
-119 268 -231 576 -250 685 l-6 35 23 -29 c13 -16 47 -70 77 -120z m638 40
c107 -100 194 -239 241 -386 65 -198 69 -493 12 -720 -11 -41 -17 -59 -15 -40
35 269 22 530 -37 710 -63 197 -149 344 -281 479 -53 55 -57 61 -28 45 19 -10
68 -50 108 -88z m-563 7 c252 -253 435 -691 516 -1235 11 -72 18 -133 16 -135
-1 -2 -8 16 -15 39 -28 93 -157 443 -228 618 -88 215 -245 545 -327 683 -31
53 -56 99 -56 102 0 13 39 -17 94 -72z m-30 -462 c92 -225 230 -510 406 -841
69 -128 64 -125 -84 64 -319 406 -507 844 -506 1178 l1 103 58 -170 c31 -93
88 -244 125 -334z m325 259 c141 -206 222 -426 265 -721 24 -160 18 -160 -20
1 -47 199 -117 401 -190 550 -61 123 -172 300 -220 351 -13 14 -24 29 -24 35
1 17 131 -131 189 -216z m-631 115 c-20 -122 6 -313 68 -507 87 -269 246 -501
549 -802 167 -167 171 -175 38 -79 -255 182 -484 441 -593 668 -140 293 -170
582 -78 747 12 21 23 37 24 35 1 -1 -3 -29 -8 -62z m97 -336 c71 -244 183
-469 356 -718 l60 -86 -47 50 c-100 107 -205 256 -274 391 -86 168 -143 374
-154 560 l-6 89 19 -96 c10 -53 31 -139 46 -190z m-211 -147 c78 -282 206
-493 446 -734 105 -105 116 -120 70 -87 -87 61 -233 192 -298 268 -137 159
-211 298 -263 492 -28 104 -32 303 -9 389 l15 55 7 -145 c5 -110 12 -168 32
-238z m-109 161 c1 -166 17 -245 82 -403 69 -169 203 -348 361 -484 48 -41 98
-84 112 -96 l25 -22 -30 17 c-123 72 -283 209 -369 316 -157 197 -245 465
-217 665 9 69 28 154 34 154 1 0 2 -66 2 -147z m1264 -1460 c-39 -18 -73 -33
-75 -33 -6 0 -5 59 2 117 l7 51 69 -51 69 -52 -72 -32z m156 -90 c14 -31 24
-57 23 -59 -6 -5 -189 -84 -196 -84 -8 0 -57 109 -51 114 5 3 193 85 197 86 1
0 14 -25 27 -57z"/>
<path d="M14704 14387 c-3 -9 -4 -28 -2 -44 2 -20 8 -28 23 -28 17 0 20 7 20
40 0 30 -4 41 -18 43 -9 2 -20 -3 -23 -11z"/>
<path d="M2940 14116 c-90 -24 -172 -95 -214 -185 -30 -65 -30 -197 1 -263 86
-187 317 -253 487 -139 l41 27 50 -18 c87 -31 180 -10 255 58 136 123 113 337
-46 430 -56 33 -161 44 -213 22 -34 -13 -37 -13 -84 19 -87 58 -181 75 -277
49z m198 -95 c20 -11 50 -33 66 -50 35 -37 44 -38 98 -10 103 53 226 -7 262
-128 9 -28 -51 -97 -102 -119 -50 -21 -124 -18 -176 8 l-44 21 -34 -28 c-55
-47 -106 -65 -183 -65 -80 0 -126 19 -187 77 -52 51 -64 84 -49 136 25 83 91
151 172 176 46 14 132 5 177 -18z m392 -341 c-48 -67 -160 -91 -240 -50 -51
26 -62 25 -91 -6 -53 -57 -147 -84 -227 -64 -57 13 -130 65 -156 110 l-19 34
39 -32 c107 -86 255 -91 369 -12 42 29 44 29 85 15 80 -28 218 -9 245 35 4 6
9 9 12 6 3 -3 -5 -19 -17 -36z"/>
<path d="M21202 13929 c-59 -10 -107 -28 -169 -65 -37 -22 -41 -27 -31 -43 11
-18 13 -18 48 5 50 33 141 64 190 64 36 0 40 2 40 25 0 27 1 27 -78 14z"/>
<path d="M21193 13727 c-100 -38 -171 -131 -180 -236 -8 -84 17 -151 79 -215
47 -48 50 -54 54 -113 9 -153 110 -302 250 -368 148 -70 334 -54 458 41 l47
35 36 -32 c21 -17 62 -44 93 -58 47 -22 69 -26 150 -26 82 0 103 4 152 27 175
82 264 271 212 449 -67 229 -321 342 -532 236 l-48 -24 -25 35 c-65 95 -213
165 -353 164 -70 0 -84 3 -106 23 -50 46 -111 70 -185 72 -38 1 -84 -3 -102
-10z m168 -81 c19 -8 52 -33 73 -56 35 -39 41 -41 75 -35 92 18 194 2 268 -41
47 -28 114 -97 137 -143 19 -36 43 -39 79 -11 149 118 366 68 454 -104 38 -75
36 -130 -7 -191 -41 -57 -113 -110 -173 -126 -23 -6 -74 -9 -113 -7 -84 6
-158 41 -209 100 -17 21 -35 38 -39 38 -5 0 -28 -18 -53 -40 -104 -91 -252
-124 -379 -84 -129 40 -248 173 -249 277 0 48 -2 52 -44 82 -129 90 -117 264
24 338 38 20 112 21 156 3z m-18 -680 c93 -69 256 -96 375 -61 29 9 81 36 117
60 l65 45 50 -39 c137 -108 324 -109 461 0 36 29 40 30 29 9 -25 -46 -100
-109 -158 -130 -109 -42 -255 -5 -323 80 -17 21 -38 41 -45 44 -8 3 -31 -9
-52 -27 -121 -107 -241 -140 -373 -101 -72 21 -148 73 -185 126 -38 53 -52 80
-27 52 10 -12 40 -38 66 -58z"/>
<path d="M20857 13664 c-20 -42 -43 -137 -43 -174 1 -15 8 -26 18 -28 13 -2
18 7 23 45 3 26 15 73 26 103 26 71 27 84 9 87 -10 2 -23 -10 -33 -33z"/>
<path d="M22655 12953 c-10 -43 -62 -123 -113 -175 -39 -41 -43 -49 -32 -63
12 -14 17 -12 53 22 47 45 111 141 128 190 9 29 9 37 -2 44 -22 14 -26 11 -34
-18z"/>
<path d="M14084 12757 c-3 -8 -4 -34 -2 -58 3 -35 7 -45 23 -47 19 -3 21 3 23
58 2 54 0 60 -18 60 -11 0 -23 -6 -26 -13z"/>
<path d="M15334 12713 c1 -51 4 -58 22 -61 19 -3 21 2 23 58 2 57 0 60 -22 60
-22 0 -23 -4 -23 -57z"/>
<path d="M24247 12149 c-97 -22 -194 -104 -224 -190 -15 -41 -23 -51 -53 -60
-52 -17 -110 -48 -152 -81 -34 -27 -44 -29 -130 -31 -83 -2 -101 -6 -159 -34
-80 -39 -150 -111 -187 -191 -24 -50 -27 -69 -27 -157 0 -89 3 -107 29 -162
34 -74 123 -164 191 -193 99 -43 219 -43 317 -1 43 18 45 18 93 -1 29 -11 87
-22 135 -25 73 -5 95 -2 157 19 l72 24 48 -19 c28 -11 84 -21 133 -24 72 -5
96 -2 156 19 l71 23 51 -23 c190 -86 410 28 452 235 36 171 -86 345 -263 378
-31 6 -42 15 -63 51 -36 61 -123 137 -197 172 -57 28 -63 34 -80 80 -47 135
-221 225 -370 191z m173 -95 c51 -21 117 -95 131 -148 17 -63 21 -67 79 -88
101 -37 162 -95 226 -213 8 -15 26 -22 69 -27 33 -4 77 -19 102 -34 42 -24 94
-90 109 -137 10 -33 -46 -98 -116 -134 -85 -45 -152 -45 -239 -2 l-62 31 -52
-23 c-75 -34 -227 -34 -307 -1 l-56 23 -49 -23 c-42 -19 -67 -23 -155 -23 -89
0 -112 3 -149 23 -53 26 -69 27 -98 7 -37 -26 -140 -47 -193 -40 -103 14 -210
88 -255 175 -43 83 77 245 208 281 26 7 74 9 123 5 l80 -6 35 36 c35 37 139
94 172 94 31 0 57 20 57 42 0 37 40 107 83 143 71 61 165 75 257 39z m-864
-824 c83 -31 159 -36 230 -15 32 9 68 23 80 30 18 12 30 10 90 -12 60 -22 81
-24 164 -21 67 3 108 10 140 24 l45 21 45 -21 c66 -30 255 -30 321 0 l45 21
50 -25 c106 -54 240 -38 328 39 50 44 58 37 30 -29 -36 -88 -123 -145 -224
-146 -55 -1 -73 4 -121 31 l-56 32 -64 -27 c-89 -38 -208 -38 -292 -1 l-59 26
-61 -26 c-90 -38 -208 -37 -293 2 l-60 28 -65 -30 c-154 -74 -332 -14 -408
137 -10 20 -21 48 -24 62 -5 21 2 18 49 -27 34 -33 75 -59 110 -73z"/>
<path d="M23575 11939 c-53 -9 -132 -35 -152 -52 -7 -5 -13 -16 -13 -24 0 -17
15 -15 100 16 30 11 82 23 115 26 68 8 70 9 62 30 -7 16 -33 18 -112 4z"/>
<path d="M23260 11763 c-46 -54 -104 -166 -119 -233 -13 -54 -14 -137 -3 -144
18 -11 29 13 35 75 8 89 47 183 108 258 27 33 49 68 49 76 0 28 -28 15 -70
-32z"/>
<path d="M25346 11338 c-3 -7 -10 -42 -16 -78 -13 -70 -44 -140 -84 -188 -29
-33 -34 -62 -12 -62 20 0 72 65 101 126 26 54 51 175 41 199 -7 18 -25 20 -30
3z"/>
<path d="M25057 10939 c-10 -6 -45 -13 -80 -17 -47 -5 -63 -11 -65 -24 -3 -15
4 -18 50 -17 66 1 152 30 156 52 4 20 -32 23 -61 6z"/>
<path d="M19265 10377 c-3 -7 -5 -47 -3 -88 2 -58 6 -74 18 -74 12 0 15 16 15
84 0 59 -4 86 -12 88 -7 3 -15 -2 -18 -10z"/>
<path d="M18983 10074 c6 -55 50 -106 113 -134 51 -22 52 -42 2 -91 -62 -61
-80 -161 -47 -266 10 -31 79 -103 99 -103 6 0 10 -11 10 -24 0 -35 10 -56 26
-56 11 0 14 -25 14 -129 0 -138 16 -245 56 -378 13 -44 22 -87 19 -95 -3 -7
40 -267 95 -577 l99 -564 -141 -854 -141 -853 -78 0 -79 0 0 -110 0 -110 75 0
75 0 0 -380 0 -380 -75 0 -75 0 0 -70 0 -69 -82 -3 -83 -3 -3 -67 c-2 -58 -6
-67 -23 -70 -28 -4 -28 -21 -1 -33 13 -6 22 -18 22 -32 0 -23 -2 -23 -132 -24
-73 -1 -140 -2 -148 -3 -13 -1 -15 -26 -15 -161 l0 -160 1345 0 1345 0 0 160
0 160 -147 3 -148 3 0 24 c0 17 6 25 22 27 34 5 37 38 4 38 -25 0 -26 1 -26
70 l0 70 -85 0 -85 0 0 70 0 70 -75 0 -75 0 0 380 0 380 75 0 75 0 0 110 0
109 -77 3 -77 3 -23 145 c-12 80 -50 318 -83 530 -33 212 -79 510 -103 663
-24 152 -41 277 -39 277 3 0 38 -29 79 -65 41 -36 82 -65 92 -65 9 0 30 13 46
30 21 22 34 28 51 24 85 -21 190 97 171 193 -4 21 3 37 34 71 21 25 39 55 39
66 0 15 -41 60 -130 144 -71 67 -136 122 -142 122 -20 0 -26 -6 -152 -148 -66
-73 -122 -129 -126 -125 -4 4 -20 89 -35 188 -14 99 -29 190 -32 203 -5 23
-11 27 -154 90 -75 33 -70 23 -85 194 -6 74 -5 79 21 110 39 46 64 106 65 153
0 27 3 35 9 26 5 -7 13 -12 19 -10 22 8 202 181 202 195 0 17 0 17 -127 15
-80 -2 -103 0 -103 11 0 7 13 66 29 131 17 65 27 125 24 133 -7 20 -34 2 -136
-89 -43 -38 -80 -67 -83 -64 -3 2 -19 58 -36 123 -17 66 -34 123 -39 129 -17
17 -36 -19 -73 -137 -20 -65 -39 -118 -41 -118 -2 0 -26 24 -52 52 -132 145
-142 153 -154 141 -10 -10 4 -100 45 -285 3 -14 -9 -11 -63 16 l-66 34 -44
184 -44 184 16 249 c9 136 18 248 19 249 94 37 148 95 148 157 l0 39 -301 0
-302 0 6 -46z m472 -48 c-75 -51 -258 -52 -345 -1 -22 13 -5 14 170 15 167 0
192 -2 175 -14z m-115 -208 l-1 -63 -14 33 c-8 19 -29 47 -46 63 l-31 29 46 0
46 0 0 -62z m-103 -47 c50 -74 19 -211 -47 -211 -44 0 -70 46 -70 127 0 52 4
66 26 93 33 39 61 36 91 -9z m83 -246 c0 -32 -2 -35 -31 -35 l-31 0 29 34 c15
19 29 35 31 35 1 1 2 -15 2 -34z m9 -162 c11 -41 66 -269 101 -421 l22 -94
-23 -24 c-41 -44 -55 -33 -88 71 -43 132 -61 248 -61 386 0 112 1 119 20 119
14 0 22 -10 29 -37z m570 -190 c12 -45 21 -83 21 -85 0 -1 -23 -3 -50 -3 -28
0 -50 1 -50 3 0 10 53 172 55 170 2 -2 13 -40 24 -85z m-200 -54 l52 -57 -46
-31 c-31 -21 -47 -27 -50 -18 -6 18 -35 168 -35 180 0 7 6 5 13 -3 8 -8 37
-40 66 -71z m410 -31 l-20 -87 -45 32 c-24 17 -44 33 -43 36 0 8 122 111 126
108 1 -2 -7 -42 -18 -89z m-95 -85 c41 -29 106 -106 106 -126 0 -6 -13 9 -28
34 -88 139 -286 157 -398 37 -18 -18 -39 -46 -47 -63 -9 -16 -16 -25 -17 -20
0 14 37 75 64 103 27 30 91 64 136 72 59 10 140 -6 184 -37z m-406 -50 c8 -3
10 -12 6 -22 -4 -9 -12 -31 -18 -49 -6 -17 -15 -31 -20 -29 -20 7 -45 53 -51
95 l-7 43 39 -16 c21 -9 44 -19 51 -22z m368 -38 c61 -47 84 -105 70 -180 -9
-46 -67 -110 -113 -126 -130 -43 -259 78 -224 209 32 118 173 169 267 97z
m259 -25 c-27 -27 -52 -50 -56 -50 -3 0 -11 17 -18 38 -7 20 -15 43 -17 50 -4
9 13 12 67 12 l73 0 -49 -50z m-635 -117 c14 4 19 -4 24 -35 8 -50 37 -107 70
-139 20 -19 26 -34 26 -71 0 -27 -2 -48 -5 -48 -3 0 -72 30 -83 36 -3 2 -82
284 -82 294 0 2 7 -6 16 -19 10 -14 23 -21 34 -18z m-79 -167 c21 -76 41 -142
46 -147 4 -4 106 -51 226 -104 120 -52 226 -99 236 -104 17 -9 16 -16 -1 -128
-9 -65 -29 -194 -43 -288 -90 -611 -145 -959 -154 -968 -13 -13 -445 -256
-449 -252 -1 1 36 236 84 521 l86 518 -67 381 c-37 209 -78 441 -91 515 -13
74 -24 140 -24 146 0 6 18 16 40 23 21 6 42 16 45 22 16 25 31 -6 66 -135z
m443 -125 c7 -47 8 -111 3 -111 -2 0 -39 15 -83 34 l-79 35 -3 43 -3 43 80 0
79 0 6 -44z m441 -1574 c15 -93 25 -171 22 -174 -5 -4 -138 16 -216 33 l-24 5
7 312 c4 172 9 368 11 437 2 69 7 220 11 335 l7 210 78 -495 c42 -272 89 -571
104 -663z m354 959 c44 -45 44 -45 27 -71 -14 -22 -22 -25 -47 -20 -90 20
-193 -92 -175 -190 4 -19 2 -36 -4 -40 -9 -6 -185 140 -185 154 0 3 56 70 125
148 l125 141 45 -38 c25 -21 65 -59 89 -84z m-682 -8 c-3 -8 -6 -5 -6 6 -1 11
2 17 5 13 3 -3 4 -12 1 -19z m-10 -70 c-3 -7 -5 -2 -5 12 0 14 2 19 5 13 2 -7
2 -19 0 -25z m-10 -75 c-3 -10 -5 -4 -5 12 0 17 2 24 5 18 2 -7 2 -21 0 -30z
m693 -54 c0 -48 -57 -96 -92 -77 -21 10 -22 34 -4 67 28 51 96 58 96 10z
m-755 -450 c-30 -244 -56 -452 -57 -462 -3 -15 -7 -14 -41 10 l-38 27 26 15
c31 19 30 16 54 181 11 74 35 239 54 365 20 127 39 255 43 285 4 30 9 48 11
39 2 -8 -21 -215 -52 -460z m132 374 c-3 -10 -5 -4 -5 12 0 17 2 24 5 18 2 -7
2 -21 0 -30z m-12 -415 c-3 -161 -8 -320 -10 -353 -2 -33 -4 -94 -5 -135 0
-74 0 -74 -19 -55 -19 19 -19 26 -6 230 8 116 17 264 21 330 4 66 8 127 10
135 1 8 3 43 3 78 1 34 4 62 7 62 3 0 3 -132 -1 -292z m-49 165 c-4 -60 -9
-130 -11 -158 -2 -27 -9 -129 -15 -225 -6 -96 -13 -199 -16 -227 -5 -52 -6
-52 -28 -38 l-22 14 45 371 c25 203 47 370 49 370 3 0 1 -48 -2 -107z m-205
-650 c43 -31 79 -60 79 -63 0 -4 -71 -155 -159 -336 l-159 -329 -46 -3 c-25
-2 -46 0 -46 5 0 4 30 98 67 208 42 127 64 208 59 220 -13 34 -30 -2 -102
-218 l-71 -212 -46 -3 c-34 -2 -47 1 -47 10 0 7 11 59 25 116 30 124 32 155 8
150 -13 -2 -24 -35 -47 -141 l-31 -137 -38 0 c-37 0 -38 1 -33 28 3 15 24 140
47 277 22 138 42 251 42 251 6 4 413 233 415 234 2 0 39 -26 83 -57z m453 -18
c71 -14 130 -26 131 -27 2 -3 37 -216 86 -533 25 -160 25 -155 -11 -155 -35 0
-34 -4 -52 160 -11 99 -16 115 -32 118 -21 4 -21 6 0 -210 l7 -68 -82 0 -81 0
0 128 c0 127 -10 324 -16 331 -2 2 -11 1 -20 -3 -15 -6 -16 -26 -10 -231 l8
-225 -102 0 -102 0 5 43 c6 39 20 202 21 237 1 8 -7 16 -16 18 -21 4 -23 -5
-38 -168 -7 -69 -13 -126 -14 -128 -2 -1 -66 -1 -143 0 l-140 3 36 75 c20 41
85 176 145 300 59 124 111 228 115 233 4 4 33 -11 63 -33 92 -65 108 -54 108
72 0 48 1 88 3 88 1 0 60 -11 131 -25z m396 -825 l0 -30 -800 0 -800 0 0 30 0
30 800 0 800 0 0 -30z m-150 -490 l0 -380 -650 0 -650 0 0 380 0 380 650 0
650 0 0 -380z m150 -490 l0 -30 -797 2 -798 3 -3 28 -3 27 800 0 801 0 0 -30z
m170 -140 l0 -30 -965 0 -965 0 0 30 0 30 965 0 965 0 0 -30z m0 -95 l0 -25
-963 0 c-530 0 -966 3 -969 6 -3 3 -4 14 -1 25 5 19 23 19 969 19 l964 0 0
-25z m288 -115 c8 0 12 -22 12 -75 l0 -75 -1265 0 -1265 0 0 65 c0 36 0 68 0
73 -1 4 14 9 32 12 18 3 582 4 1253 2 671 -1 1226 -2 1233 -2z"/>
<path d="M19347 5643 c-4 -3 -7 -12 -7 -20 0 -11 69 -13 376 -13 352 0 375 1
372 18 -3 16 -30 17 -369 20 -201 1 -368 -1 -372 -5z"/>
<path d="M19347 5534 c-4 -4 -7 -13 -7 -21 0 -10 39 -13 196 -13 181 0 195 1
192 18 -3 15 -21 17 -189 20 -102 1 -188 -1 -192 -4z"/>
<path d="M16687 9353 c-3 -5 -4 -24 -3 -43 l1 -35 490 0 490 0 3 43 3 42 -490
0 c-269 0 -492 -3 -494 -7z"/>
<path d="M22030 9315 l0 -44 490 0 490 -1 0 45 0 45 -490 0 -490 0 0 -45z"/>
<path d="M22127 9221 c-9 -41 -153 -329 -227 -450 -140 -232 -281 -414 -464
-597 -72 -72 -169 -161 -216 -199 -84 -67 -85 -68 -81 -109 1 -22 5 -43 6 -44
6 -7 159 114 260 206 55 49 142 138 194 196 51 58 96 106 98 106 2 0 -24 -35
-59 -77 -91 -112 -298 -318 -405 -402 -58 -46 -95 -83 -102 -102 -5 -16 -7
-29 -4 -29 18 0 235 183 338 285 236 234 440 515 597 822 l63 123 58 0 57 0 0
-1035 0 -1035 -756 0 c-685 0 -756 -1 -750 -16 3 -9 6 -27 6 -40 l0 -24 695 0
695 0 0 -35 0 -35 -685 0 -685 0 0 -24 c0 -60 -51 -56 691 -56 l679 0 0 -30 0
-30 -675 0 c-668 0 -675 0 -675 -20 0 -20 7 -20 675 -20 l675 0 0 -370 0 -370
-40 0 -39 0 -3 -82 -3 -83 -27 3 -28 3 0 -125 0 -126 -555 0 -555 0 0 -40 0
-40 4560 0 4560 0 0 40 0 40 -755 0 -755 0 0 138 0 137 51 18 c101 36 169 137
169 251 0 128 -63 558 -105 721 -61 236 -119 307 -199 244 -35 -27 -60 -79
-91 -184 -52 -181 -116 -590 -119 -760 -1 -94 1 -103 29 -154 33 -60 87 -105
147 -123 l38 -11 0 -139 0 -138 -290 0 -290 0 0 240 0 240 -105 0 -105 0 0
1025 0 1025 105 0 105 0 0 85 0 85 85 0 85 0 0 109 0 109 -27 6 c-27 7 -721
212 -1625 481 l-446 133 -1039 -312 -1038 -312 -3 -107 -3 -107 85 0 85 0 3
-82 3 -83 90 -2 c50 -1 102 -2 118 -2 l27 -1 0 -1025 0 -1025 -120 0 -120 0 0
-240 0 -240 -470 0 -470 0 0 126 0 125 -27 -3 -28 -3 -3 83 -3 82 -39 0 -40 0
0 496 0 497 498 -7 c273 -3 518 -9 545 -12 l47 -6 0 40 c0 37 -2 40 -32 46
-18 4 -288 10 -600 13 l-568 5 0 1034 0 1034 51 0 c50 0 51 0 67 -42 36 -94
156 -325 232 -447 87 -140 227 -331 349 -476 83 -99 456 -481 484 -496 15 -9
17 -4 17 38 l0 48 -173 175 c-341 347 -582 671 -746 1000 -77 155 -153 363
-166 452 l-7 47 -388 1 -387 0 -6 -29z m703 -81 c0 -19 -8 -20 -310 -20 -294
0 -310 1 -310 18 0 10 2 21 4 23 2 2 142 3 310 1 297 -2 306 -3 306 -22z m0
-85 l0 -25 -310 0 -310 0 0 25 0 25 310 0 310 0 0 -25z m-110 -119 c0 -9 -12
-16 -27 -18 -25 -3 -28 -7 -30 -40 -1 -36 1 -38 28 -38 28 0 29 -1 29 -55 l0
-55 -105 0 c-98 0 -105 -1 -105 -20 0 -19 7 -20 105 -20 l105 0 0 -80 0 -80
-31 0 c-24 0 -30 -4 -27 -17 2 -11 14 -19 31 -21 26 -3 27 -5 27 -67 0 -62 -1
-64 -27 -67 -25 -3 -28 -7 -28 -38 0 -31 3 -35 28 -38 27 -3 27 -4 27 -78 l0
-74 -54 0 c-46 0 -54 -3 -52 -17 2 -14 14 -19 54 -21 l52 -3 0 -65 0 -64 -200
0 -200 0 0 55 0 55 95 0 95 0 0 40 0 40 -95 0 -95 0 0 75 0 75 75 0 c68 0 75
2 75 20 0 18 -7 20 -75 20 l-75 0 0 165 0 165 45 0 45 0 0 40 0 40 -45 0 -45
0 0 55 0 55 75 0 c68 0 75 2 75 20 0 18 -7 20 -75 20 -73 0 -75 1 -75 25 l0
25 200 0 c167 0 200 -2 200 -14z m4054 -341 c474 -141 870 -260 881 -265 13
-5 -44 -9 -160 -9 l-180 -1 -697 205 c-383 113 -704 205 -714 205 -9 0 -327
-92 -706 -205 l-690 -205 -182 1 c-99 0 -174 3 -166 7 38 15 1717 520 1734
521 10 1 406 -114 880 -254z m-244 -87 l624 -183 -622 -3 c-342 -1 -902 -1
-1244 0 l-621 3 609 182 c335 100 614 182 619 183 6 0 291 -82 635 -182z
m-4800 -142 c0 -2 -8 -10 -17 -17 -16 -13 -17 -12 -4 4 13 16 21 21 21 13z
m6190 -156 l0 -30 -2010 0 -2010 0 0 30 0 30 2010 0 2010 0 0 -30z m-170 -150
c0 -35 -3 -40 -22 -40 -23 0 -3524 0 -3610 0 -48 0 -48 0 -48 33 0 19 3 37 7
40 3 4 831 7 1840 7 l1833 0 0 -40z m-487 -130 c4 0 7 -461 7 -1025 l0 -1025
-205 0 -205 0 0 1028 0 1027 197 -2 c109 -2 201 -3 206 -3z m-2923 -1025 c0
-670 -3 -1025 -10 -1025 -6 0 -11 357 -12 1025 -2 815 0 1025 10 1025 9 0 12
-212 12 -1025z m90 0 c0 -1018 0 -1025 -20 -1025 -20 0 -20 7 -20 1025 0 1018
0 1025 20 1025 20 0 20 -7 20 -1025z m70 0 c0 -912 -3 -1070 -22 -1015 -9 27
3 2040 12 2040 7 0 10 -355 10 -1025z m490 0 l0 -1025 -205 0 -205 0 0 1025 0
1025 205 0 205 0 0 -1025z m110 0 c0 -904 -2 -1025 -15 -1025 -13 0 -15 121
-15 1025 0 904 2 1025 15 1025 13 0 15 -121 15 -1025z m90 0 l0 -1025 -25 0
-25 0 0 1025 0 1025 25 0 25 0 0 -1025z m70 0 c0 -904 -2 -1025 -15 -1025 -13
0 -15 121 -15 1025 0 904 2 1025 15 1025 13 0 15 -121 15 -1025z m490 0 l0
-1025 -205 0 -205 0 0 1025 0 1025 205 0 205 0 0 -1025z m110 0 c0 -904 -2
-1025 -15 -1025 -13 0 -15 121 -15 1025 0 904 2 1025 15 1025 13 0 15 -121 15
-1025z m90 0 l0 -1025 -25 0 -25 0 0 1025 0 1025 25 0 25 0 0 -1025z m70 0 c0
-904 -2 -1025 -15 -1025 -13 0 -15 121 -15 1025 0 904 2 1025 15 1025 13 0 15
-121 15 -1025z m490 0 l0 -1025 -205 0 -205 0 0 1025 0 1025 205 0 205 0 0
-1025z m110 0 c0 -904 -2 -1025 -15 -1025 -13 0 -15 121 -15 1025 0 904 2
1025 15 1025 13 0 15 -121 15 -1025z m90 0 l0 -1025 -25 0 -25 0 0 1025 0
1025 25 0 25 0 0 -1025z m70 0 c0 -904 -2 -1025 -15 -1025 -13 0 -15 121 -15
1025 0 904 2 1025 15 1025 13 0 15 -121 15 -1025z m590 0 c0 -677 -3 -1025
-10 -1025 -7 0 -10 348 -10 1025 0 677 3 1025 10 1025 7 0 10 -348 10 -1025z
m100 0 l0 -1025 -25 0 -25 0 0 1025 0 1025 25 0 25 0 0 -1025z m60 0 c0 -912
-3 -1070 -22 -1015 -9 27 3 2040 12 2040 7 0 10 -355 10 -1025z m-4810 826 l0
-150 -27 -3 c-38 -4 -40 -37 -2 -45 l29 -5 0 -99 0 -99 -40 0 -40 0 0 -40 0
-40 40 0 40 0 0 -65 0 -64 -77 -3 c-70 -3 -78 -5 -78 -23 0 -21 3 -21 113 -24
l42 -1 0 -90 0 -90 -200 0 -200 0 0 80 0 80 45 0 45 0 0 45 0 45 -45 0 -45 0
0 60 0 60 75 0 c68 0 75 2 75 20 0 18 -7 20 -75 20 l-75 0 0 230 0 229 102 3
c89 3 103 5 106 21 3 15 -7 17 -102 17 l-106 0 0 40 0 40 200 0 200 0 0 -149z
m5760 -937 c39 -91 88 -321 119 -559 41 -316 40 -353 -11 -411 -42 -47 -77
-64 -138 -64 -119 0 -188 88 -175 224 20 223 76 575 111 695 25 89 55 161 65
161 5 0 19 -21 29 -46z m-5650 -49 l0 -55 -55 -1 c-30 -1 -61 -2 -67 -3 -16
-1 -22 -30 -14 -62 6 -24 10 -25 69 -23 l62 3 3 -62 3 -62 -178 -2 c-160 -3
-178 -5 -181 -20 -3 -17 11 -18 177 -18 l181 0 0 -75 0 -75 -49 0 c-41 0 -49
-3 -47 -17 2 -14 14 -19 49 -21 l47 -3 0 -120 0 -119 -65 0 c-36 0 -66 -3 -66
-7 -1 -5 -3 -23 -5 -40 l-2 -33 69 0 69 0 0 -60 0 -60 -310 0 -310 0 0 70 0
70 150 0 c143 0 150 1 150 20 0 19 -7 20 -150 20 l-150 0 0 130 0 130 80 0
c73 0 80 2 80 20 0 18 -7 20 -80 20 l-80 0 0 65 0 65 81 0 80 0 -3 38 -3 37
-77 3 -78 3 0 59 0 60 178 1 c97 1 181 1 185 0 5 -1 7 9 5 21 -3 23 -4 23
-185 26 l-183 2 0 65 0 65 310 0 310 0 0 -55z m4920 -1050 l0 -105 -1840 0
-1840 0 0 105 0 105 1840 0 1840 0 0 -105z m-4840 -5 l0 -40 -390 0 -390 0 0
40 0 40 390 0 390 0 0 -40z m60 -210 l0 -80 -450 0 -450 0 0 80 0 80 450 0
450 0 0 -80z m4780 56 c0 -9 -12 -16 -27 -18 -16 -2 -844 -2 -1840 0 -1601 2
-1813 4 -1813 17 0 13 214 15 1840 15 1591 0 1840 -2 1840 -14z m0 -102 l0
-34 -1837 2 -1838 3 -3 32 -3 33 1823 2 c1003 2 1831 1 1841 -1 12 -2 17 -13
17 -37z"/>
<path d="M22462 8513 l3 -38 58 -3 57 -3 0 41 0 40 -60 0 -60 0 2 -37z"/>
<path d="M22440 7555 l0 -45 70 0 70 0 0 45 0 45 -70 0 -70 0 0 -45z"/>
<path d="M22520 6270 l0 -40 60 0 60 0 0 40 0 40 -60 0 -60 0 0 -40z"/>
<path d="M0 5045 l0 -45 9348 2 9347 3 63 34 c34 19 62 38 62 43 0 4 -4234 8
-9410 8 l-9410 0 0 -45z"/>
<path d="M21002 5078 c2 -6 17 -16 34 -21 16 -6 45 -21 64 -33 l34 -24 4433 0
4433 0 0 45 0 45 -4501 0 c-3442 0 -4500 -3 -4497 -12z"/>
<path d="M17020 3114 c-218 -57 -399 -240 -455 -459 -33 -128 -9 -302 57 -428
50 -94 175 -215 268 -260 112 -55 187 -71 300 -64 256 14 463 171 553 420 19
53 22 82 22 197 -1 129 -2 139 -33 215 -76 190 -241 334 -433 380 -80 18 -207
18 -279 -1z m314 -124 c216 -81 353 -318 318 -549 -47 -304 -348 -499 -634
-411 -82 25 -194 103 -242 168 -139 191 -147 412 -20 603 128 194 361 270 578
189z"/>
<path d="M9010 2515 l0 -595 55 0 55 0 2 502 3 502 140 -185 c77 -101 248
-327 380 -501 l240 -317 58 -1 57 0 0 595 0 595 -55 0 -55 0 -2 -500 -3 -500
-380 500 -380 500 -57 0 -58 0 0 -595z"/>
<path d="M10650 2515 l0 -595 415 0 415 0 0 55 0 55 -360 0 -360 0 0 220 0
220 328 2 327 3 3 53 3 52 -330 0 -331 0 0 210 0 210 360 0 360 0 0 55 0 55
-415 0 -415 0 0 -595z"/>
<path d="M11990 3104 c0 -4 300 -890 385 -1136 l17 -48 58 0 57 0 169 510 c92
281 170 510 173 510 3 0 81 -230 174 -510 l168 -510 58 0 58 0 198 583 c109
320 200 588 202 595 4 9 -12 12 -60 12 l-64 0 -163 -482 c-90 -266 -166 -489
-170 -497 -4 -8 -75 188 -172 480 l-165 494 -64 3 -64 3 -164 -498 c-102 -312
-166 -492 -171 -483 -4 8 -81 232 -171 497 l-164 483 -62 0 c-35 0 -63 -3 -63
-6z"/>
<path d="M15013 3088 c8 -13 116 -171 241 -353 l226 -330 0 -242 0 -243 60 0
60 0 0 241 0 241 233 341 c128 188 237 348 241 355 5 9 -9 12 -62 12 l-69 0
-199 -295 c-109 -162 -201 -294 -204 -294 -3 0 -63 88 -135 196 -71 108 -161
240 -198 295 l-68 98 -70 0 -71 0 15 -22z"/>
<path d="M18360 2515 l0 -595 55 0 55 0 0 220 0 220 173 0 172 -1 154 -219
154 -220 64 0 c34 0 63 3 63 6 0 3 -65 98 -145 210 -80 112 -148 210 -151 218
-4 9 5 16 28 20 102 19 217 108 264 204 25 50 29 68 29 152 0 88 -3 101 -33
162 -36 73 -96 134 -165 167 -93 45 -146 51 -439 51 l-278 0 0 -595z m648 451
c105 -49 154 -123 154 -233 1 -116 -69 -206 -187 -242 -72 -22 -83 -23 -322
-22 l-183 1 0 266 0 265 238 -3 237 -3 63 -29z"/>
<path d="M19850 2515 l0 -595 55 0 55 0 0 178 1 177 102 107 102 107 230 -284
230 -284 73 0 c39 -1 72 1 72 4 0 3 -117 147 -261 321 -143 173 -259 320 -256
327 4 10 338 376 455 500 l36 37 -76 0 -77 0 -313 -341 -313 -341 -3 341 -2
341 -55 0 -55 0 0 -595z"/>
</g>
</svg>
